<?xml version="1.0" encoding="UTF-8"?>
<svg version="1.1" xmlns="http://www.w3.org/2000/svg" width="1024" height="1024">
<path d="M0 0 C1.34400833 0.98560611 2.67607028 1.98758315 4 3 C6.31347872 3.73260159 8.645752 4.411438 11 5 C12.1328125 9.53125 12.1328125 9.53125 11.46875 11.875 C10.89501339 14.47593932 11.29476099 16.17904397 11.9375 18.75 C12.22947266 19.94882813 12.22947266 19.94882813 12.52734375 21.171875 C12.68332031 21.77515625 12.83929687 22.3784375 13 23 C12.01 23.33 11.02 23.66 10 24 C8.98459888 28.10223585 8.98459888 28.10223585 10 32 C10.22939249 38.19359718 10.22939249 38.19359718 9.4921875 40.78515625 C8.79920573 43.9035742 8.94720886 46.87193564 9 50.0625 C9.05398135 54.66371432 8.95925744 59.17306447 8.4375 63.75 C8.05688722 67.26059321 8.071139 70.39465124 8.5078125 73.89453125 C9.33965233 82.22974854 8.67123118 90.53155806 8.22851562 98.87695312 C8.17244141 100.12283203 8.11636719 101.36871094 8.05859375 102.65234375 C7.99986084 103.77632568 7.94112793 104.90030762 7.88061523 106.05834961 C7.99970207 108.99265905 8.45996384 110.53991305 10 113 C9.34 113 8.68 113 8 113 C8 114.32 8 115.64 8 117 C9.48448016 115.23361856 10.96241965 113.46173862 12.4375 111.6875 C13.26121094 110.70136719 14.08492187 109.71523437 14.93359375 108.69921875 C17.14121576 106.11899855 17.14121576 106.11899855 18 103 C19.65848177 101.98648336 21.32665961 100.98879205 23 100 C24.68433301 98.35118895 26.3473382 96.68055483 28 95 C30.37445324 92.70618857 32.77876388 90.44521818 35.1875 88.1875 C35.81591797 87.59001953 36.44433594 86.99253906 37.09179688 86.37695312 C37.69443359 85.81298828 38.29707031 85.24902344 38.91796875 84.66796875 C39.46219482 84.15516357 40.0064209 83.6423584 40.56713867 83.11401367 C42 82 42 82 44 82 C44.226875 81.46375 44.45375 80.9275 44.6875 80.375 C46.43382056 77.21499137 48.6402849 74.7323017 51 72 C50.67 71.34 50.34 70.68 50 70 C51.010625 69.62875 52.02125 69.2575 53.0625 68.875 C58.25305492 66.6429561 62.74825759 63.34021407 65.4375 58.3125 C67.52538432 55.22243121 69.63176738 54.85694587 73.08984375 53.74609375 C75.19742116 53.07016819 75.19742116 53.07016819 77 51 C79.81276953 48.18723047 83.1139341 46.81212705 87 46 C89.99869632 46.42759188 90.92309983 46.9316443 93.25 49 C95.674313 53.15596515 96.11186609 56.30545429 95 61 C93.10494436 64.39115219 90.58476895 67.11612998 88 70 C87.1063655 71.06671527 86.21729211 72.13726283 85.33203125 73.2109375 C78.73842762 81.1851844 71.89206047 88.41979321 64.04296875 95.17578125 C61.90330196 97.08634414 59.8877612 99.08156815 57.875 101.125 C54.72363438 104.31358647 51.56817346 107.28139165 48 110 C47.34 110 46.68 110 46 110 C45.76667969 110.56203125 45.53335937 111.1240625 45.29296875 111.703125 C43.68062924 114.56734142 41.6806438 116.47252021 39.3125 118.75 C34.97536585 122.99989295 30.93593339 127.38158885 27 132 C25.25767561 133.99682122 23.50987312 135.9887513 21.76171875 137.98046875 C20.5479144 139.371903 19.34265561 140.77082279 18.14453125 142.17578125 C17.53996094 142.88089844 16.93539063 143.58601562 16.3125 144.3125 C15.77238281 144.94800781 15.23226563 145.58351563 14.67578125 146.23828125 C13 148 13 148 10.8046875 149.37109375 C8.71995148 150.89935753 8.71995148 150.89935753 8.64453125 153.671875 C8.69996094 154.68765625 8.75539063 155.7034375 8.8125 156.75 C8.96858712 160.04048517 9.00284323 162.98084783 8.51806641 166.24633789 C8.00632303 169.95418636 7.82681535 173.52126112 7.75390625 177.26171875 C7.72094646 178.64258395 7.6877352 180.02344318 7.65429688 181.40429688 C7.60722537 183.53861153 7.56277061 185.6729058 7.52319336 187.80737305 C7.35119046 196.68663648 6.77821402 205.26690097 5 214 C6.48185125 212.37744772 7.96040256 210.75188112 9.4375 209.125 C10.26121094 208.22007812 11.08492187 207.31515625 11.93359375 206.3828125 C14.00907942 204.18862073 14.00907942 204.18862073 15 202 C15.66 202 16.32 202 17 202 C17 201.34 17 200.68 17 200 C18.46875 198.5546875 18.46875 198.5546875 20.5 196.875 C23.41624089 194.40309004 26.15670308 191.87427217 28.8125 189.125 C32.73513328 185.14071433 36.97821274 181.66122686 41.33203125 178.16015625 C44.97931823 175.20708201 48.48878049 172.11221729 52 169 C53.968534 167.27950129 55.938975 165.56121485 57.91015625 163.84375 C59.42988983 162.5029757 60.93596177 161.14666728 62.43359375 159.78125 C63.23925781 159.0490625 64.04492188 158.316875 64.875 157.5625 C65.61492187 156.88316406 66.35484375 156.20382812 67.1171875 155.50390625 C69 154 69 154 71 154 C71.2578125 153.40574219 71.515625 152.81148437 71.78125 152.19921875 C73.10696947 149.80697497 74.40378864 148.55218361 76.5 146.8125 C80.6846971 143.29857402 84.65039514 139.59009187 88.60546875 135.8203125 C91.24514206 133.81364405 92.70214135 133.15386588 96 133 C99.27144862 133.78303396 100.58746616 134.36490021 102.43359375 137.20703125 C102.93052734 138.49673828 102.93052734 138.49673828 103.4375 139.8125 C103.78683594 140.66457031 104.13617187 141.51664063 104.49609375 142.39453125 C105.13138172 145.6793148 104.61933214 147.09949038 103 150 C101.30078125 151.703125 101.30078125 151.703125 99.3125 153.25 C95.48145468 156.42409712 92.69259863 159.87172346 89.73828125 163.8515625 C87.55245384 166.55314694 85.10566322 168.66572245 82.3828125 170.80859375 C80.85370975 171.97116179 80.85370975 171.97116179 80 174 C79.34 174 78.68 174 78 174 C77.34 175.32 76.68 176.64 76 178 C75.34 178 74.68 178 74 178 C74 178.66 74 179.32 74 180 C72.3203125 181.5078125 72.3203125 181.5078125 70.125 183.125 C69.40570312 183.66382813 68.68640625 184.20265625 67.9453125 184.7578125 C66 186 66 186 64 186 C63.76667969 186.58136719 63.53335937 187.16273438 63.29296875 187.76171875 C61.69329561 190.53094144 59.86415684 191.89387288 57.3125 193.8125 C52.85208469 197.27028593 48.90008232 200.9355114 45 205 C43.33333333 206.66666667 41.66666667 208.33333333 40 210 C38.1827636 211.8390238 36.36640356 213.67891388 34.55078125 215.51953125 C33.00329271 217.08173887 31.45486296 218.64300669 29.90600586 220.20385742 C28.83653132 221.2834909 27.76884361 222.36489711 26.70288086 223.44799805 C25.15682406 225.01818611 23.60450772 226.58193689 22.05078125 228.14453125 C21.12950439 229.07628174 20.20822754 230.00803223 19.2590332 230.96801758 C17 233 17 233 15 233 C15 234.32 15 235.64 15 237 C14.34 237 13.68 237 13 237 C12.731875 237.7425 12.46375 238.485 12.1875 239.25 C11 242 11 242 9.44189453 243.83422852 C7.62443939 246.56410399 7.66602044 248.1463408 7.7421875 251.40234375 C7.75636719 252.45873047 7.77054688 253.51511719 7.78515625 254.60351562 C7.82962891 256.25383789 7.82962891 256.25383789 7.875 257.9375 C8.03020111 265.48301298 7.91028115 272.85182029 7.26269531 280.37182617 C6.71298457 287.96406722 6.61231793 295.57902236 6.4375 303.1875 C6.40573166 304.49654297 6.40573166 304.49654297 6.37332153 305.83203125 C6.01742268 320.55711486 5.86658024 335.27045852 6 350 C11.36341574 347.07764245 16.7254833 344.15299234 22.078125 341.2109375 C31.60043704 335.98569108 41.15978481 330.85564313 50.8125 325.875 C58.36288912 321.97618924 65.73346004 317.88356937 73.01220703 313.50073242 C78.08780662 310.46840577 83.28017567 307.82844934 88.60424805 305.2644043 C95.8587739 301.7009184 102.73968539 297.50392939 109.6394043 293.3034668 C110.98578979 292.49002808 110.98578979 292.49002808 112.359375 291.66015625 C113.15827148 291.17168213 113.95716797 290.68320801 114.78027344 290.17993164 C116.87627413 289.06576849 118.68083286 288.45264156 121 288 C122.79237033 278.7595553 122.79237033 278.7595553 124.5793457 269.51806641 C124.85627955 268.08365827 125.13321639 266.64925072 125.41015625 265.21484375 C125.54758743 264.50289856 125.68501862 263.79095337 125.82661438 263.05743408 C126.60338445 259.03779777 127.38875993 255.02001911 128.18359375 251.00390625 C130.06495979 241.42822412 131.61825085 231.86703119 132.92431641 222.19580078 C133.79432974 215.9486052 135.16658296 210.0358561 137 204 C138.55474266 198.13308442 138.55474266 198.13308442 138.8125 192.125 C138.9053125 191.073125 138.9053125 191.073125 139 190 C141.0625 188.375 141.0625 188.375 144 187 C145.7015625 186.13375 145.7015625 186.13375 147.4375 185.25 C151.40638972 183.85740711 153.02555296 183.7579853 157 185 C159.43004395 186.21994109 161.68366146 187.5638701 164 189 C164.32413345 195.48266894 163.48650582 200.85304423 161.75390625 207.10546875 C160.93931206 210.04722925 160.93931206 210.04722925 160.46484375 213.30078125 C160 216 160 216 159 217 C158.60614377 218.83100646 158.26636315 220.67369084 157.94921875 222.51953125 C157.74731934 223.67791504 157.54541992 224.83629883 157.33740234 226.02978516 C157.12293457 227.27808105 156.9084668 228.52637695 156.6875 229.8125 C150.71319183 263.8604245 150.71319183 263.8604245 147 275 C152.67984281 271.79061309 157.47863139 268.75323367 162 264 C170.34728033 257 170.34728033 257 173 257 C173 256.34 173 255.68 173 255 C174.90625 253.484375 174.90625 253.484375 177.5 251.75 C182.10091558 248.61389205 186.59610046 245.40663968 191 242 C191.9590625 241.27425781 192.918125 240.54851562 193.90625 239.80078125 C194.9065625 239.02089844 195.906875 238.24101562 196.9375 237.4375 C197.87464844 236.71433594 198.81179688 235.99117187 199.77734375 235.24609375 C202.3784885 232.61752041 202.68886277 231.6316346 203 228 C203.06662842 227.35619385 203.13325684 226.7123877 203.2019043 226.04907227 C203.3581888 224.53865711 203.5059399 223.02734185 203.64648438 221.51538086 C204.48955311 212.46590272 205.92537903 203.85398349 208 195 C208.3196859 193.37639839 208.63270674 191.75146313 208.9375 190.125 C209.92598025 185.10022541 211.19569728 180.15049333 212.46411133 175.19091797 C213.91919243 169.45598722 215.14155097 163.69568334 216.2890625 157.890625 C217 155 217 155 218.0625 152.8828125 C219.1533926 150.69193652 219.26403412 149.05771345 219.375 146.625 C219.79397404 142.16329395 221.04197391 139.46511628 224 136 C226.52394121 134.06497841 227.67888156 133.98603833 230.875 134.125 C237.32192726 135.93013963 240.66444712 139.31720621 244 145 C245.24546405 147.49092811 244.7767578 148.41080733 244 151 C243.34 151 242.68 151 242 151 C242.04640625 151.60585938 242.0928125 152.21171875 242.140625 152.8359375 C242.17671875 153.67382812 242.2128125 154.51171875 242.25 155.375 C242.29640625 156.18710937 242.3428125 156.99921875 242.390625 157.8359375 C242.02446104 160.80186555 241.40695676 162.51136419 240.2109375 165.1953125 C236.94891558 172.95273608 235.84101818 181.25890665 234.375 189.5 C234.07389254 191.15252186 233.77181545 192.80486735 233.46875 194.45703125 C232.89412881 197.59304351 232.32396373 200.72981239 231.75683594 203.8671875 C230.89821737 208.59080119 229.96543948 213.29706708 229 218 C229.48243164 217.64808594 229.96486328 217.29617188 230.46191406 216.93359375 C238.97030997 210.73537096 247.48107741 204.59308298 256.28515625 198.8203125 C259.04089611 196.97257901 261.7084048 195.03632228 264.375 193.0625 C268.62412386 189.94359367 272.95340118 186.99110838 277.375 184.125 C277.95813965 183.74351807 278.5412793 183.36203613 279.14208984 182.96899414 C282.32880555 180.92550925 285.43172489 179.269611 289 178 C289 177.34 289 176.68 289 176 C290.85573509 175.07213246 292.71256986 174.14641323 294.57421875 173.23046875 C296.26265369 172.37401624 297.93107104 171.47741701 299.58203125 170.55078125 C300.44183594 170.08027344 301.30164063 169.60976563 302.1875 169.125 C302.98542969 168.67382812 303.78335938 168.22265625 304.60546875 167.7578125 C307 167 307 167 309.671875 167.7421875 C312.2908203 169.15712103 313.93725557 170.87071543 316 173 C317.32567199 173.68177416 318.65753688 174.35191436 320 175 C321.5121867 178.02437339 321.17263369 180.66241534 321 184 C320 186.4375 320 186.4375 319 188 C318.34 188 317.68 188 317 188 C316.67 188.99 316.34 189.98 316 191 C313.34765625 193.04296875 313.34765625 193.04296875 310.0625 195.1875 C308.98097656 195.90292969 307.89945313 196.61835938 306.78515625 197.35546875 C304 199 304 199 302 199 C302 199.66 302 200.32 302 201 C300.25446445 202.13669755 298.44988474 203.18312389 296.625 204.1875 C292.77998766 206.36173641 289.11141212 208.55963041 285.5625 211.1875 C278.00357046 216.62009652 269.71549321 220.94375326 261.61328125 225.50048828 C258.13411151 227.49685044 254.71689633 229.58936147 251.30664062 231.70092773 C248.93241582 233.0380626 246.5490388 234.0446739 244 235 C244 235.66 244 236.32 244 237 C242.35 237.66 240.7 238.32 239 239 C243.08031971 241.72021314 247.45728553 243.3143124 252 245.125 C252.91523437 245.49753906 253.83046875 245.87007812 254.7734375 246.25390625 C255.65257812 246.60582031 256.53171875 246.95773437 257.4375 247.3203125 C258.24058594 247.64273926 259.04367187 247.96516602 259.87109375 248.29736328 C262.10116436 249.15670837 262.10116436 249.15670837 265 249 C265 249.66 265 250.32 265 251 C265.54350098 251.12383057 266.08700195 251.24766113 266.64697266 251.37524414 C269.37962534 252.1007949 271.99089361 253.03044292 274.6484375 253.99609375 C275.73640625 254.38990234 276.824375 254.78371094 277.9453125 255.18945312 C279.07710937 255.60130859 280.20890625 256.01316406 281.375 256.4375 C283.61174413 257.24934578 285.84871621 258.06056382 288.0859375 258.87109375 C289.0764209 259.23130615 290.0669043 259.59151855 291.08740234 259.96264648 C294.04552651 261.01621476 297.01773647 262.0170765 300 263 C299.67 263.66 299.34 264.32 299 265 C300.53720703 265.45439453 300.53720703 265.45439453 302.10546875 265.91796875 C303.46640028 266.34032681 304.82706353 266.76355003 306.1875 267.1875 C306.86103516 267.38408203 307.53457031 267.58066406 308.22851562 267.78320312 C313.9992971 269.61296311 317.18333817 272.55690305 320.8125 277.4375 C322.28271134 280.61006131 322.42473399 282.53133908 322 286 C319.91386418 291.42395314 319.91386418 291.42395314 317.171875 293.15234375 C313.49757813 294.58637688 309.88107204 294.48243382 306 294 C303.8125 292.625 303.8125 292.625 302 291 C300.02015519 290.27566653 298.01416562 289.62256028 296 289 C293.1268232 287.91087499 290.25657525 286.81504207 287.390625 285.70703125 C285.01425653 284.70848925 285.01425653 284.70848925 283 286 C282.67 285.34 282.34 284.68 282 284 C280.01679255 283.06564546 280.01679255 283.06564546 277.58203125 282.265625 C276.66389648 281.94174805 275.74576172 281.61787109 274.79980469 281.28417969 C273.81399414 280.94290039 272.82818359 280.60162109 271.8125 280.25 C264.07520982 277.50965778 256.50042708 274.62324211 248.98828125 271.3125 C243.90266905 269.07881935 238.74038593 267.02058747 233.53515625 265.08203125 C229.94082722 263.54793396 226.78609114 261.43986137 223.5 259.33984375 C220.88935243 257.94069982 218.94958791 257.2386398 216 257 C214.08586421 257.65638625 214.08586421 257.65638625 212.375 258.9375 C211.68921875 259.40285156 211.0034375 259.86820312 210.296875 260.34765625 C209.53890625 260.89292969 208.7809375 261.43820312 208 262 C207.13890625 262.61746094 206.2778125 263.23492187 205.390625 263.87109375 C203.5115271 265.2326435 201.63666247 266.6000509 199.765625 267.97265625 C191.99144396 273.67152625 184.00615863 278.98777879 175.88818359 284.1809082 C173.06001569 285.99429342 170.28412727 287.78201384 167.6171875 289.828125 C166 291 166 291 164 291 C162.99983813 293.00032373 162.50603992 294.83125748 162 297 C162.71929688 297.10699219 163.43859375 297.21398437 164.1796875 297.32421875 C167.25231113 298.06045682 169.40876405 299.21113701 172.125 300.8125 C178.81779815 304.57381648 185.71483333 307.15903741 193.125 309.125 C194.07375 309.41375 195.0225 309.7025 196 310 C196.33 310.66 196.66 311.32 197 312 C199.91666667 313.25 199.91666667 313.25 203 314 C203.66 313.67 204.32 313.34 205 313 C205 313.66 205 314.32 205 315 C205.62003906 315.12375 206.24007812 315.2475 206.87890625 315.375 C213.04099732 316.81013038 218.43274411 318.99717664 224 321.9375 C224.64654541 322.27330078 225.29309082 322.60910156 225.95922852 322.95507812 C229.43268862 324.84761284 232.09608696 326.47776087 234 330 C234.66126434 333.08038971 234.58536297 335.90751641 234 339 C230.99652039 343.15186887 228.04687434 345.17414784 223 346 C218.94916578 345.55912816 214.98598303 344.8384754 211 344 C210.67 343.01 210.34 342.02 210 341 C207.36 341 204.72 341 202 341 C202 340.34 202 339.68 202 339 C201.21882812 338.92136719 200.43765625 338.84273438 199.6328125 338.76171875 C194.7450466 337.73686461 190.43471847 335.81624047 185.875 333.8125 C184.47157349 333.20402222 184.47157349 333.20402222 183.03979492 332.58325195 C177.10865359 329.99008027 171.31018452 327.23524066 165.55859375 324.265625 C162.26102395 322.6344607 158.87705556 321.32253421 155.4453125 320.00390625 C152.80418028 318.91960756 150.29100233 317.67584149 147.75 316.375 C140.20652577 312.58571992 134.41805974 310.92265958 126 313 C123.83589975 314.29273285 122.05463801 315.75675715 120.14453125 317.3984375 C117.627027 319.27854086 115.18307964 320.2565494 112.25 321.375 C106.51539708 323.61360291 101.72487912 326.61280562 96.69140625 330.1328125 C90.02253259 334.7594041 90.02253259 334.7594041 86.875 335.5 C84.52913783 336.12556324 83.53595205 337.15685754 82 339 C82 339.33 82 339.66 82 340 C81.236875 340.20625 80.47375 340.4125 79.6875 340.625 C72.68694466 343.23537657 66.36852318 347.14032512 60.04101562 351.07885742 C52.01339861 356.04796987 43.69283972 360.15486748 35.12011719 364.10620117 C29.46287928 366.73166234 24.21583217 369.57614795 19 373 C19.66 373.33 20.32 373.66 21 374 C21 374.66 21 375.32 21 376 C23.64 376.66 26.28 377.32 29 378 C29 378.66 29 379.32 29 380 C30.11375 380.37125 31.2275 380.7425 32.375 381.125 C35.87133517 382.41604956 38.8534003 384.07030298 42 386.0625 C45.12239335 388.01939169 47.69510175 389.35400769 51.3125 390.0625 C55.61694198 391.15684966 57.1206154 392.70927474 60 396 C63.14573677 398.09715785 65.01456251 398.52004559 68.6875 399.125 C69.68136719 399.29257812 70.67523437 399.46015625 71.69921875 399.6328125 C72.45847656 399.75398438 73.21773437 399.87515625 74 400 C74 400.66 74 401.32 74 402 C79.6314788 406.94627985 85.53830013 410.49657125 92.55859375 413.0234375 C95.98367783 414.39347113 98.9487899 416.32588102 102.06640625 418.28125 C106.49157968 420.87389489 111.1033929 423.07720359 115.73095703 425.28417969 C120.8946993 427.7893986 120.8946993 427.7893986 122 430 C123.32385614 430.36917992 124.65959866 430.69633385 126 431 C127.44843636 431.64255957 128.88572147 432.31068604 130.3125 433 C137.01838708 436.03671211 137.01838708 436.03671211 144.140625 435.23046875 C147.20046313 433.76108605 149.5890251 432.4109749 152 430 C152.66 430.33 153.32 430.66 154 431 C156.72191454 429.92355319 159.3490751 428.79295553 162 427.5625 C169.76285714 424 169.76285714 424 172 424 C172.33 423.34 172.66 422.68 173 422 C174.5994475 421.52356883 176.20198072 421.05571815 177.81640625 420.6328125 C180.39525641 419.88545342 182.87143302 418.96981791 185.375 418 C186.22835937 417.67 187.08171875 417.34 187.9609375 417 C190.16532964 416.17445397 190.16532964 416.17445397 191 414 C192.99510964 413.63854647 194.99618449 413.3095715 197 413 C198.75199127 412.37294322 200.48159361 411.68084178 202.1875 410.9375 C203.21488281 410.4940625 204.24226562 410.050625 205.30078125 409.59375 C206.16437256 409.21863281 206.16437256 409.21863281 207.04541016 408.8359375 C209.28544801 407.87791981 211.53802534 406.95362607 213.79296875 406.03125 C214.63126221 405.68586182 215.46955566 405.34047363 216.33325195 404.98461914 C217.9954059 404.29986472 219.6592479 403.61918992 221.32495117 402.94311523 C224.94339613 401.439838 228.0359496 399.97559346 231.296875 397.76171875 C234.86113231 395.4387707 236.62861791 395.59676285 240.6796875 396.2421875 C245.14330294 397.7000013 248.70942776 400.70942776 252 404 C252.5816474 410.16546243 252.5816474 410.16546243 250.5625 413.0625 C241.03658188 420.26502345 230.64038903 426.85882607 219.1484375 430.34375 C212.29351659 432.43761675 205.93056674 435.49579939 199.5625 438.75 C191.2571584 442.99277214 182.725147 446.59232385 174.10107422 450.13134766 C171.05427996 451.39099139 168.02697933 452.69353482 165 454 C170.40984481 459.03675206 177.39541648 461.86522371 184.375 464.0625 C187 465 187 465 189.29833984 466.84716797 C192.04233081 469.03373153 194.78205554 470.68937652 197.8515625 472.3828125 C198.94984375 472.99253906 200.048125 473.60226562 201.1796875 474.23046875 C202.88511719 475.16826172 202.88511719 475.16826172 204.625 476.125 C206.88857865 477.37659585 209.15162461 478.62915574 211.4140625 479.8828125 C212.4138916 480.43340332 213.4137207 480.98399414 214.44384766 481.55126953 C216.34026247 482.62608572 218.18627941 483.79085294 220 485 C220 485.66 220 486.32 220 487 C224.99512721 486.60564785 228.63731311 484.81219653 232.99609375 482.54296875 C236.62807618 480.6773861 240.30461142 478.92323289 244 477.1875 C244.6592749 476.87345215 245.3185498 476.5594043 245.99780273 476.23583984 C250.76523827 474 250.76523827 474 253 474 C253 473.34 253 472.68 253 472 C259.47444949 469.47771789 259.47444949 469.47771789 262.39331055 468.34741211 C267.21766539 466.47794585 272.03526952 464.59270503 276.84486389 462.68563843 C279.63264664 461.58186333 282.42318775 460.48516548 285.21408081 459.38928223 C286.60990726 458.83932324 288.00455215 458.28635563 289.39797974 457.73034668 C291.3834053 456.93864792 293.37278514 456.15775267 295.36328125 455.37890625 C296.52126221 454.9207251 297.67924316 454.46254395 298.87231445 453.99047852 C301.81005125 453.06015316 303.95037123 452.78255194 307 453 C307.33 452.34 307.66 451.68 308 451 C308.99 451.66 309.98 452.32 311 453 C311 452.34 311 451.68 311 451 C313.58442737 449.39034424 316.10634027 447.96991187 319 447 C321.9375 448 321.9375 448 324 450 C324.625 452.125 324.625 452.125 325 454 C325.99 454.33 326.98 454.66 328 455 C328.22211116 456.93596892 328.42722992 458.87389328 328.625 460.8125 C328.74101563 461.89144531 328.85703125 462.97039062 328.9765625 464.08203125 C329 467 329 467 327 470 C324.2421875 471.2109375 324.2421875 471.2109375 320.875 472.375 C317.02553399 473.70646236 313.69656808 475.12639655 310.328125 477.38671875 C305.20380983 480.70122177 299.62386477 482.483284 293.875 484.4375 C285.88582231 487.22666564 278.08837427 490.13615957 270.36328125 493.58984375 C265.46896703 495.64193136 260.45797175 497.33833121 255.41796875 498.99682617 C251.47713808 500.05613433 251.47713808 500.05613433 249 503 C249.73863281 503.42410156 250.47726562 503.84820313 251.23828125 504.28515625 C257.36519896 507.82740219 263.3969738 511.46873182 269.33203125 515.32421875 C271.90191119 516.93838931 274.52255599 518.43664965 277.16333008 519.9309082 C279.65494687 521.38123253 282.0689485 522.9414306 284.49267578 524.50170898 C293.04437689 529.99064293 301.84716389 534.60623277 311 539 C312.0621875 539.56460938 313.124375 540.12921875 314.21875 540.7109375 C317.63542253 542.29450763 320.27860467 542.22328372 324 542 C324 543.32 324 544.64 324 546 C325.97194115 547.97194115 327.50904533 548.832365 330 550 C330.66 550.33 331.32 550.66 332 551 C332.625 553.5625 332.625 553.5625 333 556 C333.66 556 334.32 556 335 556 C334.23137011 560.80393683 333.1559641 563.34178293 329.375 566.5 C326.13830289 568.69278939 325.14436195 569 321.0625 569 C319.70295657 568.68932308 318.34863842 568.35503928 317 568 C316.278125 567.89300781 315.55625 567.78601563 314.8125 567.67578125 C309.47631169 566.81420918 306.03621355 564.88345036 301.6875 561.7578125 C298.39907747 559.60695474 294.97475047 557.94849046 291.4375 556.25 C283.52042617 552.41255214 276.17143367 547.88429521 268.77734375 543.13232422 C262.02618312 538.8275687 262.02618312 538.8275687 255 535 C255 534.34 255 533.68 255 533 C254.32582031 532.75507812 253.65164063 532.51015625 252.95703125 532.2578125 C249.35909286 530.72738164 246.06123937 528.84156692 242.6875 526.875 C242.04232422 526.50246094 241.39714844 526.12992188 240.73242188 525.74609375 C239.15324055 524.83367787 237.57638136 523.91724491 236 523 C236 525.64838689 236.3911696 528.22769706 236.72802734 530.85058594 C236.96638641 532.73435003 237.18230895 534.62092514 237.39453125 536.5078125 C238.29921758 544.33715402 239.49959107 552.0629419 240.9375 559.8125 C241.10749512 560.73820801 241.27749023 561.66391602 241.45263672 562.61767578 C242.475039 568.18114038 242.475039 568.18114038 243.5234375 573.73974609 C244.01333871 576.32350393 244.47793165 578.91069983 244.9375 581.5 C245.16651001 582.65592651 245.16651001 582.65592651 245.40014648 583.83520508 C246.26347175 588.86149038 245.88258885 591.77093873 243 596 C239.89523677 598.62932385 236.02849868 600.35544021 232 601 C232 600.34 232 599.68 232 599 C231.0925 598.79375 230.185 598.5875 229.25 598.375 C225.06511238 596.60447062 224.05163635 595.02999997 222 591 C220.5705575 586.38679921 219.68723344 581.84788161 220 577 C219.34 576.67 218.68 576.34 218 576 C218.33 574.68 218.66 573.36 219 572 C218.34 571.67 217.68 571.34 217 571 C216.75252023 568.9848076 216.51975509 566.967306 216.3359375 564.9453125 C215.86946066 560.85550396 215.07974385 556.84304032 214.29931641 552.80297852 C213.49568374 548.63551427 212.72169731 544.46493902 211.984375 540.28515625 C211.72394409 538.81695435 211.72394409 538.81695435 211.45825195 537.3190918 C211.1175212 535.39275699 210.77998962 533.46585289 210.44604492 531.53833008 C209.61492852 526.87083772 208.66662732 522.45915399 207 518 C207.66 518 208.32 518 209 518 C209.9029933 513.90939508 209.9029933 513.90939508 209 510 C204.59230981 506.08876197 199.60485109 502.8682837 194 501 C193.5875 500.54625 193.175 500.0925 192.75 499.625 C190.68600636 497.70843447 188.50401112 496.92365276 185.93017578 495.85205078 C182.85390998 494.49407359 179.96375331 492.8159145 177.0625 491.125 C176.44987305 490.77276367 175.83724609 490.42052734 175.20605469 490.05761719 C171.9970068 488.20225351 168.84922834 486.28248783 165.75 484.25 C161.44703913 481.49049248 156.77070877 479.77863248 152 478 C152.06711182 478.65991943 152.13422363 479.31983887 152.20336914 479.99975586 C152.96204258 487.82516627 153.30210165 495.62541386 153.51757812 503.48242188 C153.71540484 509.01783745 154.29891354 514.21565296 155.48510742 519.6262207 C155.97772269 521.89729623 156.38043779 524.16244454 156.74609375 526.45703125 C156.85985352 527.17068848 156.97361328 527.8843457 157.09082031 528.61962891 C157.20522461 529.34327637 157.31962891 530.06692383 157.4375 530.8125 C158.31830938 536.32618272 159.36920953 541.70902277 160.75 547.125 C161.96828758 552.23665108 162.38988218 555.90376533 161 561 C158.79611308 564.30583039 157.41015164 564.88814046 153.5625 565.9375 C149.43277859 566.00995125 148.13475729 565.63979561 145 563 C139.08312525 556.32590616 136.36041447 548.04906851 135.1875 539.3125 C134.45142483 534.24919502 133.33434912 529.48183822 131.9375 524.5625 C129.33640624 515.15148385 129.27533659 505.58941176 129.1418457 495.87915039 C129.20434875 493.9870564 129.20434875 493.9870564 128 493 C128 490.77080253 128.00599773 488.54150676 128.03515625 486.3125 C127.98338158 481.43417543 127.62927784 476.57908132 127.26757812 471.71484375 C126.89317717 466.21364567 126.89317717 466.21364567 128 464 C127.34 464 126.68 464 126 464 C125.67 463.01 125.34 462.02 125 461 C123.09178005 459.61398011 123.09178005 459.61398011 120.6875 458.3984375 C119.78402832 457.91213867 118.88055664 457.42583984 117.94970703 456.92480469 C116.97630371 456.41336914 116.00290039 455.90193359 115 455.375 C114.01499512 454.8480957 113.02999023 454.32119141 112.01513672 453.77832031 C109.01494476 452.1762149 106.00807887 450.58723738 103 449 C101.25226752 448.07094553 99.50484902 447.14130004 97.7578125 446.2109375 C93.84417222 444.12981116 89.92426386 442.06101922 86 440 C86 439.34 86 438.68 86 438 C85.30003906 437.9071875 84.60007812 437.814375 83.87890625 437.71875 C80.43072609 436.85787463 77.95828995 435.36364791 74.9375 433.5 C71.04455073 431.01405659 71.04455073 431.01405659 66.75390625 429.46875 C65 429 65 429 63 426 C61.35819392 424.92138926 61.35819392 424.92138926 59.4453125 424.0625 C58.74792969 423.72476562 58.05054688 423.38703125 57.33203125 423.0390625 C56.23955078 422.52472656 56.23955078 422.52472656 55.125 422 C45.76094518 417.54411703 45.76094518 417.54411703 43 415 C43 414.34 43 413.68 43 413 C42.43949951 412.90928223 41.87899902 412.81856445 41.30151367 412.72509766 C35.43417126 411.62284947 31.22474633 409.70366029 26.3125 406.375 C24.93512594 405.47681266 23.55618474 404.58102448 22.17578125 403.6875 C21.48693848 403.23890625 20.7980957 402.7903125 20.08837891 402.328125 C16.78981348 400.23037004 13.40391102 398.29556136 10 396.375 C9.09181519 395.86138916 9.09181519 395.86138916 8.1652832 395.33740234 C6.77844695 394.55543896 5.38948665 393.7772441 4 393 C4.03029297 393.63236572 4.06058594 394.26473145 4.09179688 394.91625977 C4.86893827 411.90427183 5.11005913 428.87076617 5.125 445.875 C5.12874634 447.33681198 5.12874634 447.33681198 5.13256836 448.82815552 C5.15733096 460.61205925 4.94822644 472.35514521 4.35488892 484.12533569 C3.93968196 492.42127437 3.8996823 500.69592335 4 509 C4.92296875 509.0928125 5.8459375 509.185625 6.796875 509.28125 C10.36481353 510.0818606 11.10931033 510.66076949 13.25 513.5 C18.78633423 520.33467809 25.59137689 525.90130106 32.33203125 531.515625 C34.65215211 533.58036956 36.80393868 535.80393868 39 538 C41.08524838 539.97898715 43.19680507 541.92864799 45.3125 543.875 C45.88355469 544.4016626 46.45460938 544.9283252 47.04296875 545.47094727 C50.7576196 548.8867242 54.52588077 552.23105796 58.34375 555.53125 C60.66764263 557.59206045 62.83821335 559.77065752 65 562 C65.66 561.67 66.32 561.34 67 561 C67.26167969 561.60972656 67.52335937 562.21945312 67.79296875 562.84765625 C69.10823026 565.19299311 70.08868667 565.98511656 72.3125 567.4375 C76.49921884 570.46553281 80.22612387 573.85552532 83.9375 577.4375 C84.51733643 577.9749585 85.09717285 578.51241699 85.69458008 579.06616211 C88.64546927 581.96713271 89.89356896 583.59961657 90.984375 587.703125 C91.00476671 592.00577485 89.77611996 593.77369843 87 597 C84.60874898 598.83329245 83.38679459 599 80.375 599 C72.90228469 596.78586213 66.82332957 592.02923918 61 587 C60.071875 586.39800781 59.14375 585.79601562 58.1875 585.17578125 C54.91482023 582.94185645 52.14048282 580.5193981 49.25 577.8125 C48.19688806 576.8343409 47.14349843 575.8564807 46.08984375 574.87890625 C45.31036377 574.1521167 45.31036377 574.1521167 44.51513672 573.41064453 C37.25524916 566.65143887 29.89727175 560.1015627 21.7421875 554.4296875 C21.16726563 553.95789063 20.59234375 553.48609375 20 553 C20 552.34 20 551.68 20 551 C19.34 551 18.68 551 18 551 C18 550.34 18 549.68 18 549 C17.484375 548.7525 16.96875 548.505 16.4375 548.25 C11.203041 545.56566205 7.06844149 543.26472595 3 539 C2.17525743 547.94528475 2.05950924 556.31515383 2.8125 565.28515625 C3.06256703 570.23960927 2.62882508 575.04704878 2.19140625 579.98046875 C1.97100398 583.45742701 2.39578964 586.57614128 3 590 C3.0354704 592.36469322 3.00259978 594.71809546 2.9375 597.08203125 C2.86910502 599.08641462 2.86910502 599.08641462 4 601 C4.845625 601.391875 5.69125 601.78375 6.5625 602.1875 C10.1747406 604.09213595 12.72751005 606.25661215 15.734375 608.9765625 C22.85495178 615.33597418 30.43946687 621.17689638 38 627 C40.23357753 628.72756351 42.46421778 630.45841965 44.6875 632.19921875 C46.26021396 633.42391662 47.84407267 634.63440718 49.4375 635.83203125 C58.03104894 642.42489457 65.03361517 649.96702168 71 659 C71.8353125 659.680625 71.8353125 659.680625 72.6875 660.375 C74.96680312 663.19699434 75.10249335 666.50241431 75 670 C74.19429974 673.69758871 72.99019551 676.33986966 69.75 678.5 C66.04806598 679.17307891 63.65066234 679.00707927 60 678 C58.06069006 676.61596256 56.36268085 675.1133974 54.62890625 673.48046875 C52.93373588 671.83591362 52.93373588 671.83591362 50.3125 670.4375 C47.49177856 668.68407856 46.06895457 666.60097146 44 664 C42.09374852 662.25580121 40.1325152 660.58761592 38.1640625 658.9140625 C35.16866444 656.26470321 32.42101812 653.39816046 29.6640625 650.50390625 C28.12652316 648.77649907 28.12652316 648.77649907 26 649 C24.375 647.625 24.375 647.625 23 646 C23 645.34 23 644.68 23 644 C22.34 644 21.68 644 21 644 C19.61992749 642.7151049 18.29579647 641.36984198 17 640 C13.00774068 635.7859485 8.68994969 632.38653935 4 629 C3.16776545 632.60703234 2.89252142 635.89972972 2.9375 639.59765625 C2.94523437 640.64630859 2.95296875 641.69496094 2.9609375 642.77539062 C2.97382812 643.86013672 2.98671875 644.94488281 3 646.0625 C3.02554768 648.22000141 3.046567 650.37756241 3.0625 652.53515625 C3.07410156 653.487854 3.08570313 654.44055176 3.09765625 655.42211914 C3.0074276 657.80393005 2.59252401 659.7081457 2 662 C1.77774078 665.51767234 1.81016193 669.03844672 1.8125 672.5625 C1.81185547 673.54943848 1.81121094 674.53637695 1.81054688 675.55322266 C1.85881001 682.19927552 2.2716845 688.54967965 4 695 C3.34 695 2.68 695 2 695 C2.01160156 695.69222656 2.02320313 696.38445313 2.03515625 697.09765625 C2.06561049 700.39976565 2.03905626 703.69797104 2 707 C1.99613281 708.26070312 1.99226563 709.52140625 1.98828125 710.8203125 C1.77860239 717.97831504 1.30397045 723.54660387 -3.16796875 729.32421875 C-6.18319075 732.08227896 -9.06873339 732.98329312 -13 734 C-18.88835421 728.36976543 -22.09454432 723.17928298 -23 715 C-22.92456727 711.69124635 -22.73613775 708.4399715 -22.44384766 705.14599609 C-21.36304818 693.76089489 -21.36304818 693.76089489 -24 683 C-23.34 683 -22.68 683 -22 683 C-21.94931827 675.81008919 -21.91427412 668.6202244 -21.89013672 661.43017578 C-21.88007496 658.98386921 -21.86642419 656.53757467 -21.84912109 654.09130859 C-21.82488081 650.57646718 -21.81351862 647.0617847 -21.8046875 643.546875 C-21.79436493 642.4519574 -21.78404236 641.35703979 -21.77340698 640.22894287 C-21.77325592 639.20818665 -21.77310486 638.18743042 -21.77294922 637.13574219 C-21.768508 636.23861511 -21.76406677 635.34148804 -21.75949097 634.41717529 C-22.01550499 631.84417106 -22.69978676 630.21450429 -24 628 C-28.16652263 631.40578114 -31.64248509 634.77201826 -35 639 C-35.66 639 -36.32 639 -37 639 C-37.3403125 639.86625 -37.3403125 639.86625 -37.6875 640.75 C-39 643 -39 643 -41.375 644.8125 C-44.06186885 647.05155737 -45.21761467 649.12758439 -46.828125 652.18359375 C-48.90599477 655.40429189 -51.83239389 657.87005796 -55 660 C-55.66 660 -56.32 660 -57 660 C-57.3403125 660.804375 -57.3403125 660.804375 -57.6875 661.625 C-60.54684854 666.79905926 -64.79688512 670.9046573 -69 675 C-69.721875 675.763125 -70.44375 676.52625 -71.1875 677.3125 C-73 679 -73 679 -75 679 C-75.33 679.99 -75.66 680.98 -76 682 C-78.57713843 684.004441 -80.13537943 685.02216976 -83.4375 684.9375 C-87.41305088 683.48303017 -90.72816016 681.54832677 -93.4375 678.25 C-94.52950536 673.88197858 -93.90164729 669.58861666 -91.6875 665.6875 C-90 664 -90 664 -88 662.625 C-85.74013539 661.01694769 -85.74013539 661.01694769 -84.4375 657.875 C-83 655 -83 655 -80 654 C-80 653.34 -80 652.68 -80 652 C-78.70703125 650.765625 -78.70703125 650.765625 -76.8125 649.25 C-71.89487263 645.10930478 -67.66786869 640.40982441 -63.39379883 635.62402344 C-61.96704289 634.04758694 -60.4875742 632.51917989 -59 631 C-58.34 631 -57.68 631 -57 631 C-56.62875 630.071875 -56.62875 630.071875 -56.25 629.125 C-55 627 -55 627 -52.9375 626 C-52.298125 625.67 -51.65875 625.34 -51 625 C-50.88011719 624.38640625 -50.76023437 623.7728125 -50.63671875 623.140625 C-49.76884419 620.22286267 -48.34680161 619.47607164 -45.875 617.75 C-41.88089143 614.79562763 -38.74970694 611.66351362 -35.56640625 607.8671875 C-33.50099972 605.40518171 -31.37228998 603.16895084 -29 601 C-28.34 601 -27.68 601 -27 601 C-27 600.34 -27 599.68 -27 599 C-25.35 598.34 -23.7 597.68 -22 597 C-21.15775123 589.96130477 -20.86403511 583.04612944 -20.90234375 575.9609375 C-20.9037587 574.95406891 -20.90517365 573.94720032 -20.90663147 572.90982056 C-20.91217569 569.73151527 -20.92471741 566.55328356 -20.9375 563.375 C-20.94252222 561.20442811 -20.94708386 559.0338551 -20.95117188 556.86328125 C-20.96212677 551.57549624 -20.97880824 546.28775338 -21 541 C-25.68725645 541 -26.44571037 541.7767786 -29.9375 544.6875 C-30.81535156 545.41839844 -31.69320313 546.14929688 -32.59765625 546.90234375 C-35.18852415 549.16461377 -37.6382111 551.49928234 -40 554 C-41.29579647 555.36984198 -42.61992749 556.7151049 -44 558 C-44.66 558 -45.32 558 -46 558 C-46 558.66 -46 559.32 -46 560 C-47.43359375 561.41015625 -47.43359375 561.41015625 -49.4375 563.0625 C-52.60757217 565.75174994 -55.58581525 568.53513377 -58.5 571.5 C-61.89544009 574.9421128 -65.40295547 578.15437398 -69.078125 581.29296875 C-71.71235509 583.63272189 -74.13566917 586.15518482 -76.5546875 588.71484375 C-78 590 -78 590 -80 590 C-80.4021875 590.8971875 -80.4021875 590.8971875 -80.8125 591.8125 C-81.99917406 593.99847854 -83.09599113 595.41332594 -85 597 C-85.66 597 -86.32 597 -87 597 C-87 597.66 -87 598.32 -87 599 C-91.53075583 601.65214975 -94.75260501 602.82853605 -100 602 C-102.90863585 600.425652 -105.08836472 598.71309728 -107 596 C-107.16610965 591.18282004 -106.01599474 588.61919369 -103 585 C-102.690625 584.195625 -102.38125 583.39125 -102.0625 582.5625 C-98.73034038 574.52611504 -90.53821613 568.55090481 -84.3125 562.6875 C-83.63638672 562.04232422 -82.96027344 561.39714844 -82.26367188 560.73242188 C-81.61591797 560.12333984 -80.96816406 559.51425781 -80.30078125 558.88671875 C-79.71466064 558.33201904 -79.12854004 557.77731934 -78.5246582 557.20581055 C-77 556 -77 556 -75 556 C-75 555.34 -75 554.68 -75 554 C-74.34 554 -73.68 554 -73 554 C-72.67 553.01 -72.34 552.02 -72 551 C-70.609375 549.59765625 -70.609375 549.59765625 -68.75 548.0625 C-65.01904026 544.89683719 -61.39924862 541.63892871 -57.8125 538.3125 C-57.25643066 537.79888916 -56.70036133 537.28527832 -56.12744141 536.75610352 C-53.33864133 534.17799685 -50.56093969 531.58922251 -47.80078125 528.98046875 C-47.27669678 528.48869141 -46.7526123 527.99691406 -46.21264648 527.49023438 C-45.15199584 526.49466133 -44.09551712 525.49462538 -43.04321289 524.49023438 C-40.13520624 521.76923072 -37.19671222 519.38992186 -33.8828125 517.17578125 C-26.75392191 512.68580774 -26.75392191 512.68580774 -22.28076172 505.88037109 C-21.65354202 502.10976904 -21.66891292 498.493347 -21.88671875 494.6875 C-22.00070103 490.97718035 -21.58606785 490.10739824 -20 487 C-20.14179688 486.2167334 -20.28359375 485.4334668 -20.4296875 484.62646484 C-21.24371906 479.45025561 -21.16269111 474.33377994 -21.16796875 469.1015625 C-21.17129715 467.95263519 -21.17462555 466.80370789 -21.17805481 465.6199646 C-21.18310793 463.19423827 -21.18546363 460.76850502 -21.18530273 458.34277344 C-21.18748814 454.64506504 -21.2056584 450.94765563 -21.22460938 447.25 C-21.2275439 444.88802185 -21.2295283 442.52604229 -21.23046875 440.1640625 C-21.23765427 439.06486481 -21.24483978 437.96566711 -21.25224304 436.8331604 C-21.23450721 430.83136507 -20.61724223 425.76967615 -19 420 C-19.24383894 416.70082891 -19.24383894 416.70082891 -20 413.5625 C-21.08416329 407.67508163 -20.73862497 403.6988263 -19 398 C-25.14275737 398.44070555 -29.15352767 399.75152827 -34.375 402.9375 C-35.77028063 403.75615107 -37.16613712 404.57382127 -38.5625 405.390625 C-39.284375 405.81794922 -40.00625 406.24527344 -40.75 406.68554688 C-44.58454813 408.92569522 -48.4837351 411.0479757 -52.375 413.1875 C-63.97964152 419.56157749 -63.97964152 419.56157749 -75 426.875 C-78 429 -78 429 -80 429 C-80.33 429.99 -80.66 430.98 -81 432 C-81.79921875 432.05671875 -82.5984375 432.1134375 -83.421875 432.171875 C-88.29266977 433.29917685 -92.00663173 435.66922822 -96.25 438.25 C-97.95044751 439.26272965 -99.65225682 440.27317649 -101.35546875 441.28125 C-102.16290527 441.75949219 -102.9703418 442.23773437 -103.80224609 442.73046875 C-106.33547396 444.19378633 -108.91738234 445.50126822 -111.5625 446.75 C-115.88136155 448.82695251 -119.66855517 451.42011847 -123.53515625 454.2421875 C-126.64448648 456.45961794 -129.89558616 458.41365687 -133.1875 460.34765625 C-137.70549986 464.46643629 -138.29945023 472.95999464 -139.6875 478.75 C-139.94515137 479.82403076 -140.20280273 480.89806152 -140.46826172 482.00463867 C-144.49282464 499.05189818 -147.90670569 516.24752316 -151.26171875 533.4375 C-151.44331543 534.36393311 -151.62491211 535.29036621 -151.81201172 536.24487305 C-152.13241225 537.88860592 -152.4482743 539.533234 -152.75830078 541.17895508 C-153.33559822 544.15625691 -153.96859689 546.92154811 -155.09765625 549.7421875 C-156.05005349 552.12524207 -156.21129896 553.76668065 -156.125 556.3125 C-156.08375 557.529375 -156.0425 558.74625 -156 560 C-156.66 560 -157.32 560 -158 560 C-158.66 561.98 -159.32 563.96 -160 566 C-160.61488281 565.9278125 -161.22976563 565.855625 -161.86328125 565.78125 C-162.67152344 565.6884375 -163.47976563 565.595625 -164.3125 565.5 C-165.11300781 565.4071875 -165.91351563 565.314375 -166.73828125 565.21875 C-169.11896555 564.95186537 -169.11896555 564.95186537 -172 565 C-176.74193548 562.51612903 -176.74193548 562.51612903 -178 560 C-178.41701268 552.78471075 -178.25849953 545.80618546 -176.625 538.76171875 C-175.85541208 535.36110214 -175.27339546 531.93573649 -174.6875 528.5 C-173.75103556 523.07479125 -172.74928585 517.6654114 -171.6953125 512.26171875 C-171.46755127 511.09382813 -171.23979004 509.9259375 -171.00512695 508.72265625 C-170.54860669 506.39258455 -170.08888355 504.06313775 -169.62573242 501.734375 C-169.31019409 500.12369141 -169.31019409 500.12369141 -168.98828125 498.48046875 C-168.79790283 497.52035889 -168.60752441 496.56024902 -168.41137695 495.57104492 C-167.89467056 492.77566461 -167.89467056 492.77566461 -168 489 C-167.34 489 -166.68 489 -166 489 C-165.67 484.05 -165.34 479.1 -165 474 C-172.29195231 477.04839915 -178.96635767 480.76971783 -185.75 484.8125 C-193.38027236 489.32264952 -201.00856912 493.73033573 -208.90234375 497.765625 C-211.13978136 498.82618392 -211.13978136 498.82618392 -212 501 C-214.51189412 502.09424665 -217.07108819 502.98497667 -219.65234375 503.90234375 C-222.30477045 504.89513027 -222.30477045 504.89513027 -224 508 C-224.406403 509.9889583 -224.406403 509.9889583 -224.52734375 512.17578125 C-224.5955835 512.99618896 -224.66382324 513.81659668 -224.73413086 514.66186523 C-224.83479858 515.97392944 -224.83479858 515.97392944 -224.9375 517.3125 C-225.56493988 524.46786263 -226.58434856 531.28174606 -228.21875 538.28515625 C-229.16700801 542.79412307 -229.81232988 547.31180687 -230.4375 551.875 C-230.95624405 555.58362774 -231.47783851 559.291852 -232 563 C-232.21825439 564.56403564 -232.21825439 564.56403564 -232.44091797 566.15966797 C-232.89923972 569.38053013 -233.38434869 572.59642045 -233.875 575.8125 C-234.01220459 576.80813965 -234.14940918 577.8037793 -234.29077148 578.82958984 C-235.44962789 586.21643767 -237.88149296 591.45135405 -242.8125 597.0625 C-246.29580496 598.55534498 -249.46935452 598.01778051 -253 597 C-256.48907247 595.02791556 -257.71007038 593.73391426 -259.18359375 590.00390625 C-260.46423477 585.14908961 -259.77195037 580.48658185 -259.1875 575.5625 C-259.09146484 574.65951172 -258.99542969 573.75652344 -258.89648438 572.82617188 C-258.61477528 570.21516344 -258.31016973 567.60776089 -258 565 C-257.91314941 564.21737793 -257.82629883 563.43475586 -257.73681641 562.62841797 C-257.11718979 557.23437958 -257.11718979 557.23437958 -256 555 C-255.79111292 553.00396794 -255.63224523 551.00257059 -255.5 549 C-255.10194726 543.31985061 -254.60070848 537.66199699 -254 532 C-253.34 532 -252.68 532 -252 532 C-251.34 527.71 -250.68 523.42 -250 519 C-250.928125 519.70125 -251.85625 520.4025 -252.8125 521.125 C-255.71412113 523.19758652 -258.66392852 524.95353613 -261.8125 526.625 C-266.85604394 529.31213407 -271.70683672 532.24272553 -276.5625 535.25 C-282.83922131 539.12521626 -289.17412469 542.85914843 -295.625 546.4375 C-296.34631104 546.83807617 -297.06762207 547.23865234 -297.81079102 547.65136719 C-302.48279273 550.22191717 -307.2156124 552.64601338 -312 555 C-312.66 555.33 -313.32 555.66 -314 556 C-315.3921875 556.185625 -315.3921875 556.185625 -316.8125 556.375 C-320.27409713 557.05374453 -322.03610483 558.11388489 -325 560 C-335.52340054 566.01593717 -335.52340054 566.01593717 -342 565 C-345.17411401 563.51517673 -346.70521263 562.52611915 -348.43359375 559.44140625 C-348.76488281 558.49136719 -349.09617187 557.54132812 -349.4375 556.5625 C-349.78683594 555.61503906 -350.13617188 554.66757812 -350.49609375 553.69140625 C-351 551 -351 551 -350.4296875 548.82421875 C-348.49632095 546.35732756 -346.54074512 545.53490509 -343.6875 544.25 C-337.87477782 541.49697211 -332.49955578 538.30899901 -327.0546875 534.89453125 C-323.11360621 532.45025449 -319.09748006 530.17073892 -315 528 C-314.38253906 527.66742187 -313.76507813 527.33484375 -313.12890625 526.9921875 C-311 526 -311 526 -308.1171875 525.1015625 C-304.73506704 523.90637707 -302.12710046 522.33221355 -299.125 520.375 C-291.0319738 515.22153984 -282.45682311 511.07964014 -273.80664062 506.95385742 C-273.09056641 506.60685791 -272.37449219 506.2598584 -271.63671875 505.90234375 C-270.98533936 505.59031006 -270.33395996 505.27827637 -269.6628418 504.95678711 C-267.47742406 503.6993136 -266.31715102 502.12207664 -265 500 C-264.34 499.67 -263.68 499.34 -263 499 C-271.16265251 494.82098243 -279.35034931 490.74712331 -287.75 487.0625 C-288.41644531 486.76851318 -289.08289063 486.47452637 -289.76953125 486.17163086 C-292.80632684 484.85628369 -295.74666572 483.64902376 -299 483 C-299 482.34 -299 481.68 -299 481 C-300.65 481.33 -302.3 481.66 -304 482 C-304 481.01 -304 480.02 -304 479 C-304.99 478.67 -305.98 478.34 -307 478 C-307 477.34 -307 476.68 -307 476 C-307.86367188 475.88398437 -308.72734375 475.76796875 -309.6171875 475.6484375 C-313.04416526 474.99153414 -315.9150407 473.97958641 -319.125 472.625 C-320.13820313 472.20476562 -321.15140625 471.78453125 -322.1953125 471.3515625 C-324.76710934 470.11222865 -326.75116635 468.7316968 -329 467 C-330.7325 466.2884375 -330.7325 466.2884375 -332.5 465.5625 C-335.9356022 464.02874902 -337.82533845 463.04452618 -340 460 C-341.00613913 454.59200218 -338.75248717 449.60282136 -336 445 C-333 443 -333 443 -329.78515625 443.22265625 C-325.88613081 444.0233849 -322.18521723 445.12177123 -318.4375 446.4375 C-317.80392578 446.65470703 -317.17035156 446.87191406 -316.51757812 447.09570312 C-314.67714744 447.72687039 -312.8385422 448.3633527 -311 449 C-309.00090334 449.66937058 -307.00123 450.33703475 -305 451 C-305 451.66 -305 452.32 -305 453 C-304.28457031 453.12246094 -303.56914062 453.24492188 -302.83203125 453.37109375 C-292.01101888 455.77410477 -281.82502242 461.99309004 -272 467 C-269.85547857 468.085928 -267.70977381 469.16952464 -265.5625 470.25 C-264.60988281 470.72953125 -263.65726562 471.2090625 -262.67578125 471.703125 C-260.22776547 472.88960856 -257.76119181 473.95616558 -255.25 475 C-251.3616882 476.67042998 -248.32160936 478.88413064 -245.1171875 481.6328125 C-242.05692814 483.60899474 -239.61206063 484.43466698 -236 485 C-233.20752423 483.8653666 -231.11568485 482.79094518 -228.625 481.1875 C-227.22013733 480.34014355 -225.8138365 479.49516777 -224.40625 478.65234375 C-223.684375 478.2126123 -222.9625 477.77288086 -222.21875 477.31982422 C-218.59177698 475.16231804 -214.86312067 473.20653586 -211.125 471.25 C-210.40844238 470.87222412 -209.69188477 470.49444824 -208.95361328 470.10522461 C-204.40113545 467.71160473 -199.81605196 465.39227053 -195.203125 463.1171875 C-192.10233811 461.54480266 -189.07981601 459.84223211 -186.05078125 458.13671875 C-183.40856585 456.6721765 -180.71545783 455.32291535 -178 454 C-181.45246566 451.16653702 -185.2586502 449.25742314 -189.25 447.3125 C-190.70458432 446.5966736 -192.15900731 445.88051927 -193.61328125 445.1640625 C-194.3501416 444.8021582 -195.08700195 444.44025391 -195.84619141 444.06738281 C-197.81702702 443.09067761 -199.77576373 442.0944459 -201.73046875 441.0859375 C-218.90652583 432.26087208 -236.76847714 424.69260914 -254.69140625 417.5234375 C-255.63886719 417.14445312 -256.58632813 416.76546875 -257.5625 416.375 C-258.53316406 415.99085938 -259.50382812 415.60671875 -260.50390625 415.2109375 C-262.9413786 414.02843918 -264.40801514 413.18160888 -266 411 C-266 406.13061762 -265.52184276 403.8381111 -262.9375 399.6875 C-259.56211215 396.5993792 -256.58301422 394.63181472 -252 394 C-249.625 395.25 -249.625 395.25 -247 397 C-244.3643994 397.38418629 -241.76895165 397.56157485 -239.109375 397.69140625 C-238.41328125 397.79324219 -237.7171875 397.89507813 -237 398 C-236.67 398.66 -236.34 399.32 -236 400 C-234.2602957 400.62946124 -234.2602957 400.62946124 -232.0625 401.125 C-224.41734581 403.27485685 -217.34212537 406.77523361 -210.12988281 410.04833984 C-207.27775768 411.32270754 -204.3932761 412.51000391 -201.5 413.6875 C-195.11158975 416.32008664 -189.01785903 419.4361659 -182.88671875 422.61328125 C-181.83097656 423.15339844 -180.77523437 423.69351562 -179.6875 424.25 C-178.72199219 424.75015625 -177.75648438 425.2503125 -176.76171875 425.765625 C-174.11148544 427.08057756 -174.11148544 427.08057756 -171.515625 427.45703125 C-168.23285264 428.16557994 -165.9114946 429.67383668 -163.0625 431.4375 C-158.02866247 434.54873636 -153.65635377 437.04919174 -147.625 436.9375 C-144.47174684 436.12200349 -142.97058552 435.48866868 -140.359375 433.765625 C-135.89166002 430.89821657 -131.2882229 428.34594969 -126.625 425.8125 C-124.86302318 424.85073305 -123.10131028 423.88848247 -121.33984375 422.92578125 C-120.01122314 422.1999585 -120.01122314 422.1999585 -118.65576172 421.45947266 C-116.0766973 420.04214897 -113.50729493 418.60898791 -110.94140625 417.16796875 C-110.1407373 416.71897217 -109.34006836 416.26997559 -108.51513672 415.80737305 C-107.00873916 414.96126869 -105.50375703 414.11263724 -104.00048828 413.26098633 C-102.96964111 412.68320435 -102.96964111 412.68320435 -101.91796875 412.09375 C-101.32781982 411.76052734 -100.7376709 411.42730469 -100.12963867 411.08398438 C-98.33825563 410.17217184 -96.49029112 409.37277055 -94.6340332 408.6015625 C-91.15668343 407.06905229 -88.13278559 405.32829425 -84.9375 403.28125 C-77.0140193 398.29113073 -68.75122651 393.9909852 -60.4609375 389.64453125 C-54.45524653 386.46857272 -48.51186558 383.21571495 -42.6875 379.71875 C-41.61886719 379.07873047 -40.55023438 378.43871094 -39.44921875 377.77929688 C-36.7331499 376.16888754 -36.7331499 376.16888754 -36 373 C-35.34 373 -34.68 373 -34 373 C-36.04782448 370.79042251 -37.94103867 369.34154269 -40.625 367.984375 C-41.3260083 367.62375977 -42.0270166 367.26314453 -42.74926758 366.89160156 C-43.49200928 366.51487305 -44.23475098 366.13814453 -45 365.75 C-50.09899274 363.11971634 -55.0340644 360.44028789 -59.8125 357.25 C-64.47000764 354.16876983 -69.24571994 352.09238887 -74.46875 350.140625 C-76.96224326 349.01701384 -78.15571157 347.9515145 -80 346 C-80.99 345.67 -81.98 345.34 -83 345 C-83 344.34 -83 343.68 -83 343 C-83.99 343 -84.98 343 -86 343 C-86 342.34 -86 341.68 -86 341 C-87.051875 340.9175 -88.10375 340.835 -89.1875 340.75 C-93.47408884 339.90673662 -94.77031012 338.84520299 -98 336 C-103.46306743 331.9582184 -109.05979739 328.91495451 -115.27734375 326.1953125 C-125.43688114 321.73502779 -135.16031597 316.2543061 -144.96044922 311.06567383 C-146.96223797 310.01973082 -148.97673608 309.00367307 -151 308 C-151.33 308.66 -151.66 309.32 -152 310 C-155.47325181 311.1577506 -158.36067448 311.06866652 -162 311 C-162.33 311.66 -162.66 312.32 -163 313 C-169.65177034 317.65961577 -177.52248986 320.33075503 -185.04589844 323.23828125 C-188.12687385 324.43926117 -191.18620821 325.69345495 -194.25 326.9375 C-200.13690391 329.2910196 -206.0550248 331.54736944 -212 333.75 C-212.78922852 334.04382568 -213.57845703 334.33765137 -214.39160156 334.64038086 C-217.90435221 335.93170146 -221.37815845 337.13024997 -225 338.078125 C-225.99 338.38234375 -226.98 338.6865625 -228 339 C-228.33 339.66 -228.66 340.32 -229 341 C-230.85546875 341.74609375 -230.85546875 341.74609375 -233.1875 342.4375 C-236.15070881 343.35468368 -238.54295443 344.28684385 -241.3125 345.75 C-244.34658065 347.1612003 -244.95313844 346.91405847 -248 346 C-248.61875 346.33 -249.2375 346.66 -249.875 347 C-252.94050736 348.4425917 -254.80217868 347.95254252 -258 347 C-261.2950505 343.94902731 -262.92293044 339.29999308 -264 335 C-263.88205243 331.87438946 -263.75807255 329.96095016 -261.80859375 327.48974609 C-259.43624968 325.53563655 -257.04557303 324.60648811 -254.1875 323.4765625 C-253.02863281 323.0125 -251.86976563 322.5484375 -250.67578125 322.0703125 C-249.46277344 321.59335937 -248.24976563 321.11640625 -247 320.625 C-237.03671842 316.68177717 -237.03671842 316.68177717 -227.23828125 312.3515625 C-222.32142529 310.08037917 -217.35208419 308.36092945 -212.1875 306.75 C-200.87008377 303.11014985 -189.939312 298.63895249 -179 294 C-182.17539556 290.57421051 -182.17539556 290.57421051 -186 288 C-186 287.34 -186 286.68 -186 286 C-186.6909375 285.73960937 -187.381875 285.47921875 -188.09375 285.2109375 C-191.34231407 283.85736914 -194.39701338 282.28524284 -197.5 280.625 C-198.6034375 280.03976562 -199.706875 279.45453125 -200.84375 278.8515625 C-203.82863434 277.10052886 -206.43717235 275.32375791 -209 273 C-209 272.34 -209 271.68 -209 271 C-209.6290625 270.81824219 -210.258125 270.63648438 -210.90625 270.44921875 C-218.45974314 268.23094893 -225.29250649 266.16506514 -231.9375 261.875 C-236.73997294 258.86693943 -240.37129046 258.18157128 -246 258 C-246.33 258.66 -246.66 259.32 -247 260 C-249.28072112 261.09952923 -251.53648503 262.10328877 -253.875 263.0625 C-254.51308594 263.33126953 -255.15117187 263.60003906 -255.80859375 263.87695312 C-258.51698578 265.01063288 -261.21372941 266.07124314 -264 267 C-264 267.66 -264 268.32 -264 269 C-265.0209375 269.38929688 -266.041875 269.77859375 -267.09375 270.1796875 C-277.54652428 274.19350398 -287.89637603 278.41770134 -298.20117188 282.79833984 C-299.6794043 283.42216553 -299.6794043 283.42216553 -301.1875 284.05859375 C-302.06792969 284.43298584 -302.94835937 284.80737793 -303.85546875 285.19311523 C-306 286 -306 286 -308 286 C-308.33 286.66 -308.66 287.32 -309 288 C-311.82799151 288.6443525 -314.66118149 289.02326331 -317.53125 289.4375 C-318.3459375 289.623125 -319.160625 289.80875 -320 290 C-320.33 290.66 -320.66 291.32 -321 292 C-324.36439643 294.11252799 -326.30633644 295.03926398 -330.3125 294.8125 C-331.199375 294.544375 -332.08625 294.27625 -333 294 C-333.33 293.34 -333.66 292.68 -334 292 C-334.33 292.33 -334.66 292.66 -335 293 C-338.87406672 292.7807132 -341.29014036 292.5604155 -344.375 290.125 C-346.49887496 287.34762505 -346.979728 285.13430203 -347.5 281.6875 C-346.86694011 277.01868328 -345.29780478 275.88078031 -341.7265625 273.06640625 C-340 272 -340 272 -338 272 C-338 271.34 -338 270.68 -338 270 C-336.6078125 269.62875 -336.6078125 269.62875 -335.1875 269.25 C-325.8661262 266.93626027 -325.8661262 266.93626027 -318 262 C-315.62574601 261.30920238 -313.27766183 260.69550167 -310.875 260.125 C-305.90337992 258.88209498 -301.4530391 257.4590783 -296.98046875 254.94140625 C-293.5635705 253.31720018 -289.89390808 252.56941454 -286.22265625 251.7109375 C-285.48917969 251.47632813 -284.75570312 251.24171875 -284 251 C-283.67 250.34 -283.34 249.68 -283 249 C-281.4402623 248.82669581 -279.88044412 248.65409643 -278.3203125 248.484375 C-273.3131618 247.43911122 -268.65548702 245.0716535 -264 243 C-264.825 242.608125 -265.65 242.21625 -266.5 241.8125 C-269.11292446 240.45937841 -271.52733471 239.07394656 -274 237.5 C-278.79151674 234.46080939 -283.69788985 232.02727741 -289 230 C-289 229.34 -289 228.68 -289 228 C-289.65871094 227.76410156 -290.31742188 227.52820313 -290.99609375 227.28515625 C-295.61572999 225.30874491 -299.8680561 222.71575857 -304.20507812 220.18945312 C-304.89150391 219.79564453 -305.57792969 219.40183594 -306.28515625 218.99609375 C-306.90269775 218.63700928 -307.52023926 218.2779248 -308.15649414 217.90795898 C-310.08562465 216.95782836 -311.9016309 216.44540717 -314 216 C-314 215.34 -314 214.68 -314 214 C-314.99 214 -315.98 214 -317 214 C-317.33 213.01 -317.66 212.02 -318 211 C-319.62080014 210.03513255 -319.62080014 210.03513255 -321.6875 209.3125 C-326.07594552 207.48515693 -330.18245809 205.33976392 -334.3125 203 C-334.9108667 202.66782471 -335.5092334 202.33564941 -336.12573242 201.9934082 C-339.59356762 200.01074396 -342.2616443 197.88848485 -345 195 C-346.051875 194.319375 -347.10375 193.63875 -348.1875 192.9375 C-351 191 -351 191 -352 188 C-352.66 187.67 -353.32 187.34 -354 187 C-353.5086095 181.47185683 -353.5086095 181.47185683 -351.32421875 179.4453125 C-348.64249217 177.7776842 -346.04619813 176.72219986 -343.0625 175.6875 C-342.04285156 175.32011719 -341.02320313 174.95273437 -339.97265625 174.57421875 C-336.44396858 173.89259314 -335.09443497 174.23102317 -332 176 C-331.42378906 176.60972656 -330.84757812 177.21945312 -330.25390625 177.84765625 C-326.94449879 181.00793963 -323.07490776 182.56084126 -318.9375 184.4375 C-318.0820459 184.83509521 -317.2265918 185.23269043 -316.34521484 185.64233398 C-311.96249807 187.67333894 -307.55357307 189.6336104 -303.125 191.5625 C-297.94850179 193.88794227 -293.26183202 196.85860599 -288.46875 199.8828125 C-284.8162203 202.15199905 -281.05266897 204.18288902 -277.25 206.1875 C-276.29407959 206.69265137 -276.29407959 206.69265137 -275.31884766 207.20800781 C-272.67251099 208.60255896 -270.02188993 209.98863283 -267.3671875 211.3671875 C-261.76963602 214.35124804 -256.90064048 217.97985284 -252 222 C-252.60287698 218.95807248 -253.20699963 215.91640575 -253.8125 212.875 C-253.99337158 211.96588867 -254.17424316 211.05677734 -254.3605957 210.12011719 C-255.42051727 204.81817164 -256.5255662 199.53047142 -257.6875 194.25 C-258.49818256 190.55834339 -259.1779218 186.94708345 -259.5625 183.1875 C-259.7790625 181.6096875 -259.7790625 181.6096875 -260 180 C-260.66 179.67 -261.32 179.34 -262 179 C-262.37890625 176.33203125 -262.37890625 176.33203125 -262.5625 172.8125 C-262.77334133 168.91790264 -262.99505056 165.04904441 -263.38671875 161.16796875 C-263.50660156 159.95753906 -263.62648438 158.74710938 -263.75 157.5 C-263.92789063 155.84484375 -263.92789063 155.84484375 -264.109375 154.15625 C-263.97889905 150.3910869 -262.94126328 148.19819634 -261 145 C-258.58480548 143.0845009 -257.33361843 142.99241776 -254.25 143.0625 C-249.91433363 144.31317299 -246.25432053 145.79816851 -243 149 C-242.07384792 151.37275245 -241.64865138 153.48646326 -241.3515625 156.01171875 C-241.15587669 158.2262479 -241.15587669 158.2262479 -239 160 C-238.4375 161.92358398 -238.4375 161.92358398 -238 164.24609375 C-237.835 165.08333984 -237.67 165.92058594 -237.5 166.78320312 C-237.335 167.65912109 -237.17 168.53503906 -237 169.4375 C-236.6728487 171.16654574 -236.3397489 172.8944792 -236 174.62109375 C-235.855625 175.3886499 -235.71125 176.15620605 -235.5625 176.94702148 C-235.03799715 179.28437455 -235.03799715 179.28437455 -233 182 C-232.566397 184.70080822 -232.21368601 187.34627064 -231.9375 190.0625 C-231.56443147 195.18634522 -231.56443147 195.18634522 -230 200 C-230.33 200.66 -230.66 201.32 -231 202 C-230.34 202 -229.68 202 -229 202 C-228.97421875 202.59683594 -228.9484375 203.19367188 -228.921875 203.80859375 C-228.37597335 212.15840756 -226.47846487 220.01668765 -224.42578125 228.09619141 C-224 230 -224 230 -223.625 233.38671875 C-223.28974932 236.09950525 -223.28974932 236.09950525 -221.21484375 237.1875 C-220.48394531 237.455625 -219.75304687 237.72375 -219 238 C-216.74526814 239.48433153 -214.53233534 241.02098411 -212.31640625 242.5625 C-209.94197464 244.03600899 -207.61243246 245.02306366 -205 246 C-203 247 -203 247 -201.29296875 248.234375 C-195.82523167 252.17033416 -190.38513899 254.55723527 -184.015625 256.7265625 C-180.78868983 258.08923201 -178.6674678 259.74971911 -176 262 C-174.07912438 263.2753992 -172.14143427 264.52584841 -170.1875 265.75 C-168.45833333 266.83333333 -166.72916667 267.91666667 -165 269 C-165.24161865 267.9896167 -165.4832373 266.9792334 -165.73217773 265.93823242 C-168.31279714 255.09125719 -170.72383221 244.21390914 -173.0625 233.3125 C-173.40415097 231.72588003 -173.74594759 230.13929142 -174.08789062 228.55273438 C-174.33918228 227.38519119 -174.33918228 227.38519119 -174.59555054 226.19406128 C-174.92746663 224.65330325 -175.26015587 223.11271155 -175.59365845 221.57229614 C-176.35725538 218.0363777 -177.10549717 214.49926432 -177.80810547 210.95068359 C-178.0557666 209.7230127 -178.30342773 208.4953418 -178.55859375 207.23046875 C-178.87074829 205.63368286 -178.87074829 205.63368286 -179.18920898 204.00463867 C-180.07155376 200.73483525 -181.48013746 198.01636681 -183 195 C-183.039992 193.00039988 -183.04346799 190.99952758 -183 189 C-183.350625 188.34 -183.70125 187.68 -184.0625 187 C-185.49765831 183.93832893 -185.05541686 182.16625057 -184 179 C-180.85041279 176.21664387 -178.96995222 175.05595878 -174.75 174.8125 C-173.8425 174.874375 -172.935 174.93625 -172 175 C-171.34 174.67 -170.68 174.34 -170 174 C-168.29115995 175.62339805 -166.62553283 177.29319053 -165 179 C-165 179.66 -165 180.32 -165 181 C-164.21625 181.19078125 -163.4325 181.3815625 -162.625 181.578125 C-160 183 -160 183 -158.8125 185.921875 C-158.4103125 187.81679688 -158.4103125 187.81679688 -158 189.75 C-157.84684326 190.44158203 -157.69368652 191.13316406 -157.53588867 191.84570312 C-157.19704033 193.38033871 -156.86703698 194.91694562 -156.54443359 196.45507812 C-155.9565751 199.20298705 -155.32076125 201.93682737 -154.67578125 204.671875 C-154.22076477 206.61444537 -153.7663324 208.55715266 -153.3125 210.5 C-153.09787109 211.4187793 -152.88324219 212.33755859 -152.66210938 213.28417969 C-151.7272879 217.38933022 -150.90833832 221.402679 -150.48046875 225.59375 C-150.32191406 226.7178125 -150.16335938 227.841875 -150 229 C-149.34 229.33 -148.68 229.66 -148 230 C-147.76171875 231.8359375 -147.76171875 231.8359375 -147.6875 234.375 C-147.23731282 240.61330803 -145.68800834 246.3003122 -144.01074219 252.29296875 C-142.04107232 259.472824 -140.664032 266.70291887 -139.52026367 274.05810547 C-138.47411058 280.20210385 -136.87516916 283.73123016 -131.8515625 287.6953125 C-127.66027496 290.38656029 -123.52540327 292.91135234 -119 295 C-119 295.66 -119 296.32 -119 297 C-118.18208984 297.25523437 -118.18208984 297.25523437 -117.34765625 297.515625 C-110.53759107 299.70415877 -103.89864593 302.0478507 -97.9375 306.0625 C-95.47362918 307.68760629 -93.66706325 308.55789328 -90.9375 309.5 C-87.32065449 310.76487036 -84.96823534 312.55120585 -82 315 C-79.38852254 316.45021504 -76.70155793 317.72709895 -74 319 C-67.34748621 322.18163703 -61.12439427 326.03598303 -54.88671875 329.95703125 C-47.77223463 334.41316921 -40.57436766 338.38183098 -33 342 C-30.58176348 343.20911826 -28.2758571 344.58977434 -25.94921875 345.96484375 C-23.69398775 347.16251152 -21.38235382 348.08560258 -19 349 C-18.94150446 345.79174438 -18.90623838 342.58362767 -18.875 339.375 C-18.85824219 338.47136719 -18.84148437 337.56773437 -18.82421875 336.63671875 C-18.78754053 331.61180232 -19.21269085 327.7587106 -21 323 C-20.36474424 321.32110979 -19.69313908 319.65583225 -19 318 C-18.65516947 313.94632558 -18.8043999 310.0596178 -19.54296875 306.05859375 C-20.41589578 300.22759779 -19.78735987 294.2991773 -19.5 288.4375 C-19.12547248 279.75471306 -18.88383509 271.30767437 -19.74609375 262.65234375 C-19.98269144 260.1808079 -20.03979336 257.79295292 -20 255.3125 C-19.82541592 251.99670596 -19.82541592 251.99670596 -21 249 C-21 248.01 -21 247.02 -21 246 C-20.01 245.67 -19.02 245.34 -18 245 C-19.29261927 239.94703375 -21.16263324 237.48040241 -25 234 C-27.55455677 231.4668024 -30.08644034 228.91239679 -32.61328125 226.3515625 C-39.84308055 219.04852355 -47.10357586 212.17729771 -55.53125 206.26171875 C-56.0159375 205.84535156 -56.500625 205.42898438 -57 205 C-57 204.34 -57 203.68 -57 203 C-57.53496094 202.938125 -58.06992187 202.87625 -58.62109375 202.8125 C-62.04383765 201.64348402 -64.3971302 199.35867838 -67.0625 197 C-68.21945996 195.999315 -69.37702241 194.99932619 -70.53515625 194 C-71.11410645 193.49726563 -71.69305664 192.99453125 -72.28955078 192.4765625 C-74.83148098 190.28221568 -77.40957262 188.13701472 -80 186 C-80.845625 185.29875 -81.69125 184.5975 -82.5625 183.875 C-84.95313153 182.03605267 -87.39747608 180.51813895 -90 179 C-92.80202052 176.89848461 -95.23582232 174.75869344 -97.6875 172.25 C-99.70116241 169.76754835 -99.70116241 169.76754835 -102 170 C-102 169.34 -102 168.68 -102 168 C-102.57492187 167.74992188 -103.14984375 167.49984375 -103.7421875 167.2421875 C-106.31026142 165.82930254 -108.06244669 164.20323813 -110.125 162.125 C-111.14980469 161.10792969 -111.14980469 161.10792969 -112.1953125 160.0703125 C-113.92170822 158.08981524 -115.08466797 156.45802646 -116 154 C-115.67 153.34 -115.34 152.68 -115 152 C-115.66 151.67 -116.32 151.34 -117 151 C-112.45490508 145.88676821 -107.5911772 142.47430642 -100.6875 141.5625 C-97.54715894 142.07371831 -97.15253391 142.81493409 -95 145 C-93.845 145.53625 -92.69 146.0725 -91.5 146.625 C-86.69349816 148.92720015 -82.92162923 152.20902396 -78.8671875 155.62890625 C-74.41002149 159.31487324 -69.69902122 162.63224819 -65 166 C-60.23910585 169.46571657 -55.59898788 173.07198291 -51 176.75 C-50.05125 177.50796875 -49.1025 178.2659375 -48.125 179.046875 C-47.42375 179.69140625 -46.7225 180.3359375 -46 181 C-46 181.66 -46 182.32 -46 183 C-45.34 183 -44.68 183 -44 183 C-42.29510218 184.62753771 -40.63630738 186.30351725 -39 188 C-36.96236499 189.96455387 -34.88941494 191.88962077 -32.8125 193.8125 C-32.27947266 194.31458984 -31.74644531 194.81667969 -31.19726562 195.33398438 C-28.53648582 198.12085707 -28.53648582 198.12085707 -25 199 C-25 199.99 -25 200.98 -25 202 C-24.13375 202.4021875 -24.13375 202.4021875 -23.25 202.8125 C-20.96587952 204.01800803 -19.04568469 205.43135523 -17 207 C-17.14177824 202.9581805 -17.28847457 198.91655871 -17.4375 194.875 C-17.48116699 193.68624268 -17.52483398 192.49748535 -17.56982422 191.27270508 C-17.84760013 184.03817483 -18.23105751 176.84519037 -18.9140625 169.63671875 C-19.00349686 166.89270983 -18.54474873 164.68398097 -18 162 C-17.21496361 152.10912502 -17.21496361 152.10912502 -21.15625 143.50390625 C-23.70191334 141.76312176 -26.24065635 140.36907527 -29 139 C-31.32421875 137.45703125 -31.32421875 137.45703125 -33 136 C-33 135.34 -33 134.68 -33 134 C-34.65 133.34 -36.3 132.68 -38 132 C-38 131.34 -38 130.68 -38 130 C-38.59683594 129.73445312 -39.19367188 129.46890625 -39.80859375 129.1953125 C-42.06517087 127.96445225 -43.34361462 126.7653343 -45.0625 124.875 C-48.02935452 121.78613199 -51.17115274 119.38018923 -54.6875 116.9375 C-58.8790665 113.97037208 -61.32777164 111.42299866 -64 107 C-65.98646761 104.89692632 -68.04924825 102.88970023 -70.125 100.875 C-72 99 -72 99 -74 96.4375 C-76.94358664 92.85000378 -80.47505986 90.00063555 -84 87 C-85 86 -85 86 -85.0625 83.4375 C-85.0315625 82.2309375 -85.0315625 82.2309375 -85 81 C-85.66 80.814375 -86.32 80.62875 -87 80.4375 C-91.26905268 78.39191226 -94.74163706 75.42815357 -98 72 C-98 71.34 -98 70.68 -98 70 C-98.99 69.67 -99.98 69.34 -101 69 C-102.40457737 66.19084526 -102.24895157 64.11189466 -102 61 C-101.2265625 59.9790625 -101.2265625 59.9790625 -100.4375 58.9375 C-98.67974616 57.02906191 -98.67974616 57.02906191 -99.3125 54.25 C-99.539375 53.5075 -99.76625 52.765 -100 52 C-96.4149237 48.73125396 -93.93513556 46.90509355 -89 47 C-81.91078374 49.63539638 -77.05524626 54.57485767 -72 60 C-69.3590838 62.66281434 -66.69505971 65.30161425 -64.02734375 67.9375 C-62.99737267 68.95830996 -61.96742499 69.97914353 -60.9375 71 C-60.42123047 71.50789063 -59.90496094 72.01578125 -59.37304688 72.5390625 C-56.35713843 75.53576133 -53.50068478 78.54581671 -51 82 C-51 82.66 -51 83.32 -51 84 C-50.01 84.33 -49.02 84.66 -48 85 C-46.45703125 86.63671875 -46.45703125 86.63671875 -44.8125 88.6875 C-42.31381809 91.66465292 -39.87321626 93.96329083 -36.6875 96.1875 C-33.40806886 98.49757913 -32.28389596 100.14831212 -31 104 C-30.14921875 104.39058594 -30.14921875 104.39058594 -29.28125 104.7890625 C-26.12651535 106.4636648 -24.0660652 108.97229742 -21.75 111.625 C-21.29109375 112.140625 -20.8321875 112.65625 -20.359375 113.1875 C-19.23407704 114.4534602 -18.11627823 115.72607942 -17 117 C-16.91773332 113.95613276 -17.02391783 111.92824652 -18 109 C-17.91239457 106.93420744 -17.75796256 104.87088966 -17.5625 102.8125 C-16.36250474 94.21510798 -16.36250474 94.21510798 -18 86 C-18.10093412 83.42618005 -18.14077674 80.88608096 -18.125 78.3125 C-18.12306641 77.5501001 -18.12113281 76.7877002 -18.11914062 76.00219727 C-18.07353581 69.89558618 -17.68364474 63.84273594 -17.21875 57.75390625 C-16.98730948 53.78222169 -16.96245869 49.85105265 -17 45.875 C-17.0691225 37.84608129 -16.81824781 29.83621096 -15.4765625 21.90625 C-15.07123103 19.43439249 -14.90986478 17.11939281 -14.8125 14.625 C-14.26331948 9.30425105 -11.65061626 5.78683329 -8 2 C-4.74236778 -0.17175481 -3.77560787 -0.46043998 0 0 Z M-20 247 C-19 249 -19 249 -19 249 Z M160 294 C159.67 294.66 159.34 295.32 159 296 C159.66 296 160.32 296 161 296 C160.67 295.34 160.34 294.68 160 294 Z " fill="#90CCF4" transform="translate(522,138)"/>
<path d="M0 0 C3.3125 -0.1875 3.3125 -0.1875 7 0 C7.46792969 0.49371094 7.93585937 0.98742187 8.41796875 1.49609375 C9.92924092 3.22552497 9.92924092 3.22552497 12.375 3.328125 C13.674375 3.28945313 13.674375 3.28945313 15 3.25 C15.86625 3.23453125 16.7325 3.2190625 17.625 3.203125 C20.14823779 3.0807181 20.14823779 3.0807181 23 2 C23 2.66 23 3.32 23 4 C18.69419369 6.45626678 14.86438262 6.60466352 10 6 C7.8125 4.625 7.8125 4.625 6 3 C4.01985568 2.27648573 2.02178685 1.59734611 0 1 C0 0.67 0 0.34 0 0 Z " fill="#8AC2E8" transform="translate(818,426)"/>
<path d="M0 0 C1.8871875 0.0309375 1.8871875 0.0309375 3.8125 0.0625 C3.8125 1.0525 3.8125 2.0425 3.8125 3.0625 C1.5025 3.7225 -0.8075 4.3825 -3.1875 5.0625 C-3.1875 4.7325 -3.1875 4.4025 -3.1875 4.0625 C-4.8375 3.7325 -6.4875 3.4025 -8.1875 3.0625 C-6.45706736 -0.39836529 -3.47359009 -0.0569441 0 0 Z " fill="#9CD2F6" transform="translate(279.1875,479.9375)"/>
<path d="M0 0 C0.8968714 2.6906142 1.27859126 4.88897096 1.5625 7.6875 C1.64628906 8.49574219 1.73007812 9.30398438 1.81640625 10.13671875 C1.87699219 10.75160156 1.93757813 11.36648438 2 12 C1.34 12 0.68 12 0 12 C0 12.66 0 13.32 0 14 C-0.99 14 -1.98 14 -3 14 C-2.67 13.319375 -2.34 12.63875 -2 11.9375 C-0.82703151 8.49190505 -0.93174461 5.61753577 -1 2 C-0.67 1.34 -0.34 0.68 0 0 Z " fill="#9BD4F7" transform="translate(364,686)"/>
<path d="M0 0 C0.33 0.66 0.66 1.32 1 2 C-0.6974182 6.7349034 -2.64883798 10.18660874 -6 14 C-5.41162314 9.29298514 -3.44104424 3.44104424 0 0 Z " fill="#8CC6EC" transform="translate(422,717)"/>
<path d="M0 0 C0.99 0.33 1.98 0.66 3 1 C1.3125 3.5 1.3125 3.5 -1 6 C-3.75 6.3125 -3.75 6.3125 -6 6 C-4 4 -2 2 0 0 Z " fill="#A4D2F6" transform="translate(478,754)"/>
<path d="M0 0 C2.18975773 3.28463659 2.99806563 6.20696275 4 10 C2.68 9.67 1.36 9.34 0 9 C0 6.03 0 3.06 0 0 Z " fill="#9CD5F8" transform="translate(672,635)"/>
<path d="M0 0 C1.17571451 3.67410785 1.07366746 7.16929183 1 11 C0.01 11.495 0.01 11.495 -1 12 C-2.42857143 3.42857143 -2.42857143 3.42857143 0 0 Z " fill="#A2D6F5" transform="translate(849,593)"/>
<path d="M0 0 C-3.75 2 -3.75 2 -6 2 C-6.0825 2.61875 -6.165 3.2375 -6.25 3.875 C-7 6 -7 6 -9.0625 7.25 C-10.0215625 7.62125 -10.0215625 7.62125 -11 8 C-6.54245283 -0.17216981 -6.54245283 -0.17216981 0 0 Z " fill="#90C4E8" transform="translate(596,193)"/>
<path d="M0 0 C1.9375 0.75 1.9375 0.75 4 2 C4.75 4.125 4.75 4.125 5 6 C3.02 5.34 1.04 4.68 -1 4 C-0.67 2.68 -0.34 1.36 0 0 Z " fill="#9DD3F3" transform="translate(840,585)"/>
<path d="M0 0 C0.33 0.66 0.66 1.32 1 2 C1.66 2 2.32 2 3 2 C2.40138258 4.35171131 1.73075648 6.6859378 1 9 C0.01 9.495 0.01 9.495 -1 10 C-0.67 6.7 -0.34 3.4 0 0 Z " fill="#8EBEE5" transform="translate(854,692)"/>
<path d="M0 0 C0.33 0.99 0.66 1.98 1 3 C1.66 3.33 2.32 3.66 3 4 C3 5.32 3 6.64 3 8 C2.01 8.33 1.02 8.66 0 9 C0 6.03 0 3.06 0 0 Z " fill="#98D6F8" transform="translate(527,200)"/>
<path d="M0 0 C4 1 4 1 4 1 Z " fill="#BFBFFF" transform="translate(424,741)"/>
<path d="M0 0 C0.66 0.66 1.32 1.32 2 2 C1.01 2.495 1.01 2.495 0 3 C0 2.01 0 1.02 0 0 Z " fill="#C3E6FF" transform="translate(525,678)"/>
<path d="M0 0 C0.99 0.33 1.98 0.66 3 1 C2.01 1.33 1.02 1.66 0 2 C0 1.34 0 0.68 0 0 Z " fill="#E9E9FF" transform="translate(527,533)"/>
<path d="M0 0 C0.66 0.66 1.32 1.32 2 2 C1.34 2 0.68 2 0 2 C0 1.34 0 0.68 0 0 Z " fill="#AAE9FF" transform="translate(584,726)"/>
<path d="" fill="#DDEEFF" transform="translate(0,0)"/>
<path d="M0 0 C3 1 3 1 3 1 Z " fill="#AAFFFF" transform="translate(259,608)"/>
<path d="" fill="#AAFFFF" transform="translate(0,0)"/>
<path d="" fill="#BFFFFF" transform="translate(0,0)"/>
<path d="M0 0 C2 1 2 1 2 1 Z " fill="#FFFFFF" transform="translate(436,823)"/>
<path d="" fill="#BFDFFF" transform="translate(0,0)"/>
<path d="" fill="#FFFFFF" transform="translate(0,0)"/>
<path d="" fill="#89EDFF" transform="translate(0,0)"/>
<path d="M0 0 C2 1 2 1 2 1 Z " fill="#CCE5FF" transform="translate(736,701)"/>
<path d="" fill="#FFFFFF" transform="translate(0,0)"/>
<path d="M0 0 C2 1 2 1 2 1 Z " fill="#BFFFFF" transform="translate(561,675)"/>
<path d="" fill="#80DFFF" transform="translate(0,0)"/>
<path d="" fill="#BFFFFF" transform="translate(0,0)"/>
<path d="M0 0 C2 1 2 1 2 1 Z " fill="#BFDFFF" transform="translate(788,650)"/>
<path d="" fill="#BFFFFF" transform="translate(0,0)"/>
<path d="M0 0 C2 1 2 1 2 1 Z " fill="#BFFFFF" transform="translate(649,640)"/>
<path d="M0 0 C2 1 2 1 2 1 Z " fill="#FFFFFF" transform="translate(336,623)"/>
<path d="" fill="#95B4FF" transform="translate(0,0)"/>
<path d="M0 0 C2 1 2 1 2 1 Z " fill="#FFFFFF" transform="translate(352,614)"/>
<path d="" fill="#95D4FF" transform="translate(0,0)"/>
<path d="M0 0 C2 1 2 1 2 1 Z " fill="#D4D4FF" transform="translate(325,583)"/>
<path d="M0 0 C2 1 2 1 2 1 Z " fill="#FFFFFF" transform="translate(434,573)"/>
<path d="M0 0 C2 1 2 1 2 1 Z " fill="#80FFFF" transform="translate(665,571)"/>
<path d="" fill="#FFFFFF" transform="translate(0,0)"/>
<path d="M0 0 C2 1 2 1 2 1 Z " fill="#FFFFFF" transform="translate(537,539)"/>
<path d="M0 0 C2 1 2 1 2 1 Z " fill="#FFFFFF" transform="translate(551,517)"/>
<path d="" fill="#BFFFFF" transform="translate(0,0)"/>
<path d="M0 0 C2 1 2 1 2 1 Z " fill="#BFFFFF" transform="translate(824,431)"/>
<path d="" fill="#BFFFFF" transform="translate(0,0)"/>
<path d="" fill="#FFFFFF" transform="translate(0,0)"/>
<path d="" fill="#BFDFFF" transform="translate(0,0)"/>
<path d="" fill="#95D4FF" transform="translate(0,0)"/>
<path d="M0 0 C2 1 2 1 2 1 Z " fill="#FFFFFF" transform="translate(276,399)"/>
<path d="M0 0 C2 1 2 1 2 1 Z " fill="#BFFFFF" transform="translate(252,382)"/>
<path d="M0 0 C2 1 2 1 2 1 Z " fill="#FFFFFF" transform="translate(243,374)"/>
<path d="M0 0 C2 1 2 1 2 1 Z " fill="#80DFFF" transform="translate(266,353)"/>
<path d="" fill="#D4D4FF" transform="translate(0,0)"/>
<path d="" fill="#FFFFFF" transform="translate(0,0)"/>
<path d="" fill="#C8DAED" transform="translate(0,0)"/>
<path d="" fill="#FFFFFF" transform="translate(0,0)"/>
<path d="M0 0 C2 1 2 1 2 1 Z " fill="#95B4FF" transform="translate(458,304)"/>
<path d="" fill="#80DFFF" transform="translate(0,0)"/>
<path d="" fill="#D4D4FF" transform="translate(0,0)"/>
<path d="" fill="#8080FF" transform="translate(0,0)"/>
<path d="" fill="#FFFFFF" transform="translate(0,0)"/>
<path d="" fill="#80FFFF" transform="translate(0,0)"/>
<path d="" fill="#FFFFFF" transform="translate(0,0)"/>
<path d="" fill="#8080FF" transform="translate(0,0)"/>
<path d="" fill="#FFFFFF" transform="translate(0,0)"/>
<path d="" fill="#FFFFFF" transform="translate(0,0)"/>
<path d="" fill="#FFFFFF" transform="translate(0,0)"/>
<path d="" fill="#80FFFF" transform="translate(0,0)"/>
<path d="" fill="#FFFFFF" transform="translate(0,0)"/>
<path d="" fill="#FFFFFF" transform="translate(0,0)"/>
<path d="" fill="#FFFFFF" transform="translate(0,0)"/>
<path d="" fill="#FFFFFF" transform="translate(0,0)"/>
<path d="" fill="#FFFFFF" transform="translate(0,0)"/>
<path d="" fill="#80FFFF" transform="translate(0,0)"/>
<path d="" fill="#FFFFFF" transform="translate(0,0)"/>
<path d="" fill="#80FFFF" transform="translate(0,0)"/>
<path d="" fill="#FFFFFF" transform="translate(0,0)"/>
<path d="" fill="#80FFFF" transform="translate(0,0)"/>
<path d="" fill="#FFFFFF" transform="translate(0,0)"/>
<path d="" fill="#FFFFFF" transform="translate(0,0)"/>
<path d="" fill="#FFFFFF" transform="translate(0,0)"/>
<path d="" fill="#80FFFF" transform="translate(0,0)"/>
<path d="" fill="#FFFFFF" transform="translate(0,0)"/>
<path d="" fill="#FFFFFF" transform="translate(0,0)"/>
<path d="" fill="#FFFFFF" transform="translate(0,0)"/>
<path d="" fill="#FFFFFF" transform="translate(0,0)"/>
<path d="" fill="#FFFFFF" transform="translate(0,0)"/>
<path d="" fill="#AAAAFF" transform="translate(0,0)"/>
<path d="" fill="#80FFFF" transform="translate(0,0)"/>
<path d="" fill="#FFFFFF" transform="translate(0,0)"/>
<path d="" fill="#80FFFF" transform="translate(0,0)"/>
<path d="" fill="#AAAAFF" transform="translate(0,0)"/>
<path d="" fill="#80BFFF" transform="translate(0,0)"/>
<path d="" fill="#FFFFFF" transform="translate(0,0)"/>
<path d="" fill="#FFFFFF" transform="translate(0,0)"/>
<path d="" fill="#FFFFFF" transform="translate(0,0)"/>
<path d="" fill="#FFFFFF" transform="translate(0,0)"/>
<path d="" fill="#80FFFF" transform="translate(0,0)"/>
<path d="" fill="#FFFFFF" transform="translate(0,0)"/>
<path d="" fill="#80BFFF" transform="translate(0,0)"/>
<path d="" fill="#FFFFFF" transform="translate(0,0)"/>
<path d="" fill="#FFFFFF" transform="translate(0,0)"/>
<path d="" fill="#FFFFFF" transform="translate(0,0)"/>
<path d="" fill="#FFFFFF" transform="translate(0,0)"/>
<path d="" fill="#8080FF" transform="translate(0,0)"/>
<path d="" fill="#FFFFFF" transform="translate(0,0)"/>
<path d="" fill="#FFFFFF" transform="translate(0,0)"/>
<path d="" fill="#FFFFFF" transform="translate(0,0)"/>
<path d="" fill="#FFFFFF" transform="translate(0,0)"/>
<path d="" fill="#80FFFF" transform="translate(0,0)"/>
<path d="" fill="#FFFFFF" transform="translate(0,0)"/>
<path d="" fill="#FFFFFF" transform="translate(0,0)"/>
<path d="" fill="#FFFFFF" transform="translate(0,0)"/>
<path d="" fill="#FFFFFF" transform="translate(0,0)"/>
<path d="" fill="#80FFFF" transform="translate(0,0)"/>
<path d="" fill="#FFFFFF" transform="translate(0,0)"/>
<path d="" fill="#80FFFF" transform="translate(0,0)"/>
<path d="" fill="#FFFFFF" transform="translate(0,0)"/>
<path d="" fill="#FFFFFF" transform="translate(0,0)"/>
<path d="" fill="#FFFFFF" transform="translate(0,0)"/>
<path d="" fill="#FFFFFF" transform="translate(0,0)"/>
<path d="" fill="#8080FF" transform="translate(0,0)"/>
<path d="" fill="#FFFFFF" transform="translate(0,0)"/>
<path d="" fill="#FFFFFF" transform="translate(0,0)"/>
<path d="" fill="#FFFFFF" transform="translate(0,0)"/>
<path d="" fill="#FFFFFF" transform="translate(0,0)"/>
<path d="" fill="#80FFFF" transform="translate(0,0)"/>
<path d="" fill="#FFFFFF" transform="translate(0,0)"/>
<path d="" fill="#FFFFFF" transform="translate(0,0)"/>
<path d="" fill="#FFFFFF" transform="translate(0,0)"/>
<path d="" fill="#80FFFF" transform="translate(0,0)"/>
<path d="" fill="#AAAAFF" transform="translate(0,0)"/>
<path d="" fill="#80FFFF" transform="translate(0,0)"/>
<path d="" fill="#FFFFFF" transform="translate(0,0)"/>
<path d="" fill="#AAAAFF" transform="translate(0,0)"/>
<path d="" fill="#FFFFFF" transform="translate(0,0)"/>
<path d="" fill="#FFFFFF" transform="translate(0,0)"/>
<path d="" fill="#FFFFFF" transform="translate(0,0)"/>
<path d="" fill="#FFFFFF" transform="translate(0,0)"/>
<path d="" fill="#FFFFFF" transform="translate(0,0)"/>
<path d="" fill="#FFFFFF" transform="translate(0,0)"/>
<path d="" fill="#FFFFFF" transform="translate(0,0)"/>
<path d="" fill="#AAAAFF" transform="translate(0,0)"/>
<path d="" fill="#80FFFF" transform="translate(0,0)"/>
<path d="" fill="#FFFFFF" transform="translate(0,0)"/>
<path d="" fill="#FFFFFF" transform="translate(0,0)"/>
<path d="" fill="#AAAAFF" transform="translate(0,0)"/>
<path d="" fill="#FFFFFF" transform="translate(0,0)"/>
<path d="" fill="#FFFFFF" transform="translate(0,0)"/>
<path d="" fill="#FFFFFF" transform="translate(0,0)"/>
<path d="" fill="#FFFFFF" transform="translate(0,0)"/>
<path d="" fill="#80FFFF" transform="translate(0,0)"/>
<path d="" fill="#FFFFFF" transform="translate(0,0)"/>
<path d="" fill="#FFFFFF" transform="translate(0,0)"/>
<path d="" fill="#FFFFFF" transform="translate(0,0)"/>
<path d="" fill="#80BFFF" transform="translate(0,0)"/>
<path d="" fill="#FFFFFF" transform="translate(0,0)"/>
<path d="" fill="#FFFFFF" transform="translate(0,0)"/>
<path d="" fill="#FFFFFF" transform="translate(0,0)"/>
<path d="" fill="#FFFFFF" transform="translate(0,0)"/>
<path d="" fill="#AAAAFF" transform="translate(0,0)"/>
<path d="" fill="#FFFFFF" transform="translate(0,0)"/>
<path d="" fill="#FFFFFF" transform="translate(0,0)"/>
<path d="" fill="#FFFFFF" transform="translate(0,0)"/>
<path d="" fill="#FFFFFF" transform="translate(0,0)"/>
<path d="" fill="#FFFFFF" transform="translate(0,0)"/>
<path d="" fill="#80FFFF" transform="translate(0,0)"/>
<path d="" fill="#FFFFFF" transform="translate(0,0)"/>
<path d="" fill="#FFFFFF" transform="translate(0,0)"/>
<path d="" fill="#FFFFFF" transform="translate(0,0)"/>
<path d="" fill="#80FFFF" transform="translate(0,0)"/>
<path d="" fill="#80FFFF" transform="translate(0,0)"/>
<path d="" fill="#80FFFF" transform="translate(0,0)"/>
<path d="" fill="#FFFFFF" transform="translate(0,0)"/>
<path d="" fill="#80FFFF" transform="translate(0,0)"/>
<path d="" fill="#AAAAFF" transform="translate(0,0)"/>
<path d="" fill="#AAAAFF" transform="translate(0,0)"/>
<path d="" fill="#FFFFFF" transform="translate(0,0)"/>
<path d="" fill="#80FFFF" transform="translate(0,0)"/>
<path d="" fill="#FFFFFF" transform="translate(0,0)"/>
<path d="" fill="#FFFFFF" transform="translate(0,0)"/>
<path d="" fill="#FFFFFF" transform="translate(0,0)"/>
<path d="" fill="#80BFFF" transform="translate(0,0)"/>
<path d="" fill="#FFFFFF" transform="translate(0,0)"/>
<path d="" fill="#FFFFFF" transform="translate(0,0)"/>
<path d="" fill="#80FFFF" transform="translate(0,0)"/>
<path d="" fill="#FFFFFF" transform="translate(0,0)"/>
<path d="" fill="#80FFFF" transform="translate(0,0)"/>
<path d="" fill="#80BFFF" transform="translate(0,0)"/>
<path d="" fill="#FFFFFF" transform="translate(0,0)"/>
<path d="" fill="#80FFFF" transform="translate(0,0)"/>
<path d="" fill="#AAAAFF" transform="translate(0,0)"/>
<path d="" fill="#FFFFFF" transform="translate(0,0)"/>
<path d="" fill="#80FFFF" transform="translate(0,0)"/>
<path d="" fill="#80FFFF" transform="translate(0,0)"/>
<path d="" fill="#80FFFF" transform="translate(0,0)"/>
<path d="" fill="#FFFFFF" transform="translate(0,0)"/>
<path d="" fill="#AAAAFF" transform="translate(0,0)"/>
<path d="" fill="#80FFFF" transform="translate(0,0)"/>
<path d="" fill="#FFFFFF" transform="translate(0,0)"/>
<path d="" fill="#99CCFF" transform="translate(0,0)"/>
<path d="" fill="#80FFFF" transform="translate(0,0)"/>
<path d="" fill="#FFFFFF" transform="translate(0,0)"/>
<path d="" fill="#80FFFF" transform="translate(0,0)"/>
<path d="" fill="#80FFFF" transform="translate(0,0)"/>
<path d="" fill="#FFFFFF" transform="translate(0,0)"/>
<path d="" fill="#FFFFFF" transform="translate(0,0)"/>
<path d="" fill="#80FFFF" transform="translate(0,0)"/>
<path d="" fill="#FFFFFF" transform="translate(0,0)"/>
<path d="" fill="#FFFFFF" transform="translate(0,0)"/>
<path d="" fill="#80FFFF" transform="translate(0,0)"/>
<path d="" fill="#8080FF" transform="translate(0,0)"/>
<path d="" fill="#FFFFFF" transform="translate(0,0)"/>
<path d="" fill="#FFFFFF" transform="translate(0,0)"/>
<path d="" fill="#FFFFFF" transform="translate(0,0)"/>
<path d="" fill="#FFFFFF" transform="translate(0,0)"/>
<path d="" fill="#FFFFFF" transform="translate(0,0)"/>
<path d="" fill="#FFFFFF" transform="translate(0,0)"/>
<path d="" fill="#FFFFFF" transform="translate(0,0)"/>
<path d="" fill="#FFFFFF" transform="translate(0,0)"/>
<path d="" fill="#FFFFFF" transform="translate(0,0)"/>
<path d="" fill="#AAAAFF" transform="translate(0,0)"/>
<path d="" fill="#FFFFFF" transform="translate(0,0)"/>
<path d="" fill="#FFFFFF" transform="translate(0,0)"/>
<path d="" fill="#AAAAFF" transform="translate(0,0)"/>
<path d="" fill="#80FFFF" transform="translate(0,0)"/>
<path d="" fill="#FFFFFF" transform="translate(0,0)"/>
<path d="" fill="#80FFFF" transform="translate(0,0)"/>
<path d="" fill="#FFFFFF" transform="translate(0,0)"/>
<path d="" fill="#FFFFFF" transform="translate(0,0)"/>
<path d="" fill="#80FFFF" transform="translate(0,0)"/>
<path d="" fill="#FFFFFF" transform="translate(0,0)"/>
<path d="" fill="#FFFFFF" transform="translate(0,0)"/>
<path d="" fill="#FFFFFF" transform="translate(0,0)"/>
<path d="" fill="#80FFFF" transform="translate(0,0)"/>
<path d="" fill="#FFFFFF" transform="translate(0,0)"/>
<path d="" fill="#FFFFFF" transform="translate(0,0)"/>
<path d="" fill="#99CCFF" transform="translate(0,0)"/>
<path d="" fill="#FFFFFF" transform="translate(0,0)"/>
<path d="" fill="#FFFFFF" transform="translate(0,0)"/>
<path d="" fill="#80FFFF" transform="translate(0,0)"/>
<path d="" fill="#80FFFF" transform="translate(0,0)"/>
<path d="" fill="#80FFFF" transform="translate(0,0)"/>
<path d="" fill="#80FFFF" transform="translate(0,0)"/>
<path d="" fill="#FFFFFF" transform="translate(0,0)"/>
<path d="" fill="#FFFFFF" transform="translate(0,0)"/>
<path d="" fill="#80FFFF" transform="translate(0,0)"/>
<path d="" fill="#FFFFFF" transform="translate(0,0)"/>
<path d="" fill="#80FFFF" transform="translate(0,0)"/>
<path d="" fill="#AAAAFF" transform="translate(0,0)"/>
<path d="" fill="#FFFFFF" transform="translate(0,0)"/>
<path d="" fill="#FFFFFF" transform="translate(0,0)"/>
<path d="" fill="#80FFFF" transform="translate(0,0)"/>
<path d="" fill="#FFFFFF" transform="translate(0,0)"/>
<path d="" fill="#FFFFFF" transform="translate(0,0)"/>
<path d="" fill="#FFFFFF" transform="translate(0,0)"/>
<path d="" fill="#80FFFF" transform="translate(0,0)"/>
<path d="" fill="#80FFFF" transform="translate(0,0)"/>
<path d="" fill="#FFFFFF" transform="translate(0,0)"/>
<path d="" fill="#80FFFF" transform="translate(0,0)"/>
<path d="" fill="#FFFFFF" transform="translate(0,0)"/>
<path d="" fill="#FFFFFF" transform="translate(0,0)"/>
<path d="" fill="#FFFFFF" transform="translate(0,0)"/>
<path d="" fill="#99CCFF" transform="translate(0,0)"/>
<path d="" fill="#FFFFFF" transform="translate(0,0)"/>
<path d="" fill="#FFFFFF" transform="translate(0,0)"/>
<path d="" fill="#FFFFFF" transform="translate(0,0)"/>
<path d="" fill="#FFFFFF" transform="translate(0,0)"/>
<path d="" fill="#FFFFFF" transform="translate(0,0)"/>
<path d="" fill="#FFFFFF" transform="translate(0,0)"/>
<path d="" fill="#FFFFFF" transform="translate(0,0)"/>
<path d="" fill="#AAAAFF" transform="translate(0,0)"/>
<path d="" fill="#80FFFF" transform="translate(0,0)"/>
<path d="" fill="#FFFFFF" transform="translate(0,0)"/>
<path d="" fill="#AAAAFF" transform="translate(0,0)"/>
<path d="" fill="#FFFFFF" transform="translate(0,0)"/>
<path d="" fill="#FFFFFF" transform="translate(0,0)"/>
<path d="" fill="#80FFFF" transform="translate(0,0)"/>
<path d="" fill="#80FFFF" transform="translate(0,0)"/>
<path d="" fill="#FFFFFF" transform="translate(0,0)"/>
<path d="" fill="#92DBFF" transform="translate(0,0)"/>
<path d="" fill="#80BFFF" transform="translate(0,0)"/>
<path d="" fill="#80FFFF" transform="translate(0,0)"/>
<path d="" fill="#FFFFFF" transform="translate(0,0)"/>
<path d="" fill="#80FFFF" transform="translate(0,0)"/>
<path d="" fill="#AAAAFF" transform="translate(0,0)"/>
<path d="" fill="#FFFFFF" transform="translate(0,0)"/>
<path d="" fill="#FFFFFF" transform="translate(0,0)"/>
<path d="" fill="#FFFFFF" transform="translate(0,0)"/>
<path d="" fill="#FFFFFF" transform="translate(0,0)"/>
<path d="" fill="#80BFFF" transform="translate(0,0)"/>
<path d="" fill="#FFFFFF" transform="translate(0,0)"/>
<path d="" fill="#80FFFF" transform="translate(0,0)"/>
<path d="" fill="#FFFFFF" transform="translate(0,0)"/>
<path d="" fill="#80FFFF" transform="translate(0,0)"/>
<path d="" fill="#80FFFF" transform="translate(0,0)"/>
<path d="" fill="#80FFFF" transform="translate(0,0)"/>
<path d="" fill="#FFFFFF" transform="translate(0,0)"/>
<path d="" fill="#80FFFF" transform="translate(0,0)"/>
<path d="" fill="#FFFFFF" transform="translate(0,0)"/>
<path d="" fill="#80FFFF" transform="translate(0,0)"/>
<path d="" fill="#FFFFFF" transform="translate(0,0)"/>
<path d="" fill="#AAAAFF" transform="translate(0,0)"/>
<path d="" fill="#80FFFF" transform="translate(0,0)"/>
<path d="" fill="#FFFFFF" transform="translate(0,0)"/>
<path d="" fill="#92DBFF" transform="translate(0,0)"/>
<path d="" fill="#FFFFFF" transform="translate(0,0)"/>
<path d="" fill="#FFFFFF" transform="translate(0,0)"/>
<path d="" fill="#FFFFFF" transform="translate(0,0)"/>
<path d="" fill="#AAAAFF" transform="translate(0,0)"/>
<path d="" fill="#FFFFFF" transform="translate(0,0)"/>
<path d="" fill="#80FFFF" transform="translate(0,0)"/>
<path d="" fill="#AAAAFF" transform="translate(0,0)"/>
<path d="" fill="#FFFFFF" transform="translate(0,0)"/>
<path d="" fill="#FFFFFF" transform="translate(0,0)"/>
<path d="" fill="#FFFFFF" transform="translate(0,0)"/>
<path d="" fill="#FFFFFF" transform="translate(0,0)"/>
<path d="" fill="#80FFFF" transform="translate(0,0)"/>
<path d="" fill="#FFFFFF" transform="translate(0,0)"/>
<path d="" fill="#FFFFFF" transform="translate(0,0)"/>
<path d="" fill="#FFFFFF" transform="translate(0,0)"/>
<path d="" fill="#FFFFFF" transform="translate(0,0)"/>
<path d="" fill="#FFFFFF" transform="translate(0,0)"/>
<path d="" fill="#80FFFF" transform="translate(0,0)"/>
<path d="" fill="#FFFFFF" transform="translate(0,0)"/>
<path d="" fill="#FFFFFF" transform="translate(0,0)"/>
<path d="" fill="#80FFFF" transform="translate(0,0)"/>
<path d="" fill="#80FFFF" transform="translate(0,0)"/>
<path d="" fill="#80FFFF" transform="translate(0,0)"/>
<path d="" fill="#FFFFFF" transform="translate(0,0)"/>
<path d="" fill="#80FFFF" transform="translate(0,0)"/>
<path d="" fill="#FFFFFF" transform="translate(0,0)"/>
<path d="" fill="#FFFFFF" transform="translate(0,0)"/>
<path d="" fill="#80FFFF" transform="translate(0,0)"/>
<path d="" fill="#80FFFF" transform="translate(0,0)"/>
<path d="" fill="#80FFFF" transform="translate(0,0)"/>
<path d="" fill="#FFFFFF" transform="translate(0,0)"/>
<path d="" fill="#FFFFFF" transform="translate(0,0)"/>
<path d="" fill="#80FFFF" transform="translate(0,0)"/>
<path d="" fill="#92DBFF" transform="translate(0,0)"/>
<path d="" fill="#FFFFFF" transform="translate(0,0)"/>
<path d="" fill="#80FFFF" transform="translate(0,0)"/>
<path d="" fill="#FFFFFF" transform="translate(0,0)"/>
<path d="" fill="#FFFFFF" transform="translate(0,0)"/>
<path d="" fill="#FFFFFF" transform="translate(0,0)"/>
<path d="" fill="#FFFFFF" transform="translate(0,0)"/>
<path d="" fill="#FFFFFF" transform="translate(0,0)"/>
<path d="" fill="#80FFFF" transform="translate(0,0)"/>
<path d="" fill="#FFFFFF" transform="translate(0,0)"/>
<path d="" fill="#FFFFFF" transform="translate(0,0)"/>
<path d="" fill="#FFFFFF" transform="translate(0,0)"/>
<path d="" fill="#FFFFFF" transform="translate(0,0)"/>
<path d="" fill="#FFFFFF" transform="translate(0,0)"/>
<path d="" fill="#FFFFFF" transform="translate(0,0)"/>
<path d="" fill="#FFFFFF" transform="translate(0,0)"/>
<path d="" fill="#FFFFFF" transform="translate(0,0)"/>
<path d="" fill="#FFFFFF" transform="translate(0,0)"/>
<path d="" fill="#FFFFFF" transform="translate(0,0)"/>
<path d="" fill="#FFFFFF" transform="translate(0,0)"/>
<path d="" fill="#80BFFF" transform="translate(0,0)"/>
<path d="" fill="#FFFFFF" transform="translate(0,0)"/>
<path d="" fill="#FFFFFF" transform="translate(0,0)"/>
<path d="" fill="#FFFFFF" transform="translate(0,0)"/>
<path d="" fill="#FFFFFF" transform="translate(0,0)"/>
<path d="" fill="#AAAAFF" transform="translate(0,0)"/>
<path d="" fill="#80FFFF" transform="translate(0,0)"/>
<path d="" fill="#99CCFF" transform="translate(0,0)"/>
<path d="" fill="#FFFFFF" transform="translate(0,0)"/>
<path d="" fill="#80FFFF" transform="translate(0,0)"/>
<path d="" fill="#AAAAFF" transform="translate(0,0)"/>
<path d="" fill="#FFFFFF" transform="translate(0,0)"/>
<path d="" fill="#FFFFFF" transform="translate(0,0)"/>
<path d="" fill="#FFFFFF" transform="translate(0,0)"/>
<path d="" fill="#FFFFFF" transform="translate(0,0)"/>
<path d="" fill="#FFFFFF" transform="translate(0,0)"/>
<path d="" fill="#FFFFFF" transform="translate(0,0)"/>
<path d="" fill="#80FFFF" transform="translate(0,0)"/>
<path d="" fill="#FFFFFF" transform="translate(0,0)"/>
<path d="" fill="#FFFFFF" transform="translate(0,0)"/>
<path d="" fill="#80FFFF" transform="translate(0,0)"/>
<path d="" fill="#FFFFFF" transform="translate(0,0)"/>
<path d="" fill="#FFFFFF" transform="translate(0,0)"/>
<path d="" fill="#80BFFF" transform="translate(0,0)"/>
<path d="" fill="#80FFFF" transform="translate(0,0)"/>
<path d="" fill="#FFFFFF" transform="translate(0,0)"/>
<path d="" fill="#FFFFFF" transform="translate(0,0)"/>
<path d="" fill="#FFFFFF" transform="translate(0,0)"/>
<path d="" fill="#80FFFF" transform="translate(0,0)"/>
<path d="" fill="#AAAAFF" transform="translate(0,0)"/>
<path d="" fill="#FFFFFF" transform="translate(0,0)"/>
<path d="" fill="#FFFFFF" transform="translate(0,0)"/>
<path d="" fill="#AAAAFF" transform="translate(0,0)"/>
<path d="" fill="#80FFFF" transform="translate(0,0)"/>
<path d="" fill="#FFFFFF" transform="translate(0,0)"/>
<path d="" fill="#92DBFF" transform="translate(0,0)"/>
<path d="" fill="#AAAAFF" transform="translate(0,0)"/>
<path d="" fill="#FFFFFF" transform="translate(0,0)"/>
<path d="" fill="#80FFFF" transform="translate(0,0)"/>
<path d="" fill="#FFFFFF" transform="translate(0,0)"/>
<path d="" fill="#FFFFFF" transform="translate(0,0)"/>
<path d="" fill="#AAAAFF" transform="translate(0,0)"/>
<path d="" fill="#FFFFFF" transform="translate(0,0)"/>
<path d="" fill="#FFFFFF" transform="translate(0,0)"/>
<path d="" fill="#FFFFFF" transform="translate(0,0)"/>
<path d="" fill="#AAAAFF" transform="translate(0,0)"/>
<path d="" fill="#FFFFFF" transform="translate(0,0)"/>
<path d="" fill="#FFFFFF" transform="translate(0,0)"/>
<path d="" fill="#80FFFF" transform="translate(0,0)"/>
<path d="" fill="#80FFFF" transform="translate(0,0)"/>
<path d="" fill="#FFFFFF" transform="translate(0,0)"/>
<path d="" fill="#80FFFF" transform="translate(0,0)"/>
<path d="" fill="#FFFFFF" transform="translate(0,0)"/>
<path d="" fill="#FFFFFF" transform="translate(0,0)"/>
<path d="" fill="#FFFFFF" transform="translate(0,0)"/>
<path d="" fill="#80FFFF" transform="translate(0,0)"/>
<path d="" fill="#FFFFFF" transform="translate(0,0)"/>
<path d="" fill="#80FFFF" transform="translate(0,0)"/>
<path d="" fill="#FFFFFF" transform="translate(0,0)"/>
<path d="" fill="#80FFFF" transform="translate(0,0)"/>
<path d="" fill="#AAAAFF" transform="translate(0,0)"/>
<path d="" fill="#FFFFFF" transform="translate(0,0)"/>
<path d="" fill="#80BFFF" transform="translate(0,0)"/>
<path d="" fill="#AAAAFF" transform="translate(0,0)"/>
<path d="" fill="#80FFFF" transform="translate(0,0)"/>
<path d="" fill="#8080FF" transform="translate(0,0)"/>
<path d="" fill="#FFFFFF" transform="translate(0,0)"/>
<path d="" fill="#FFFFFF" transform="translate(0,0)"/>
<path d="" fill="#FFFFFF" transform="translate(0,0)"/>
<path d="" fill="#FFFFFF" transform="translate(0,0)"/>
<path d="" fill="#99CCCC" transform="translate(0,0)"/>
<path d="" fill="#8080FF" transform="translate(0,0)"/>
<path d="" fill="#FFFFFF" transform="translate(0,0)"/>
<path d="" fill="#FFFFFF" transform="translate(0,0)"/>
<path d="" fill="#FFFFFF" transform="translate(0,0)"/>
<path d="" fill="#FFFFFF" transform="translate(0,0)"/>
<path d="" fill="#FFFFFF" transform="translate(0,0)"/>
<path d="" fill="#80FFFF" transform="translate(0,0)"/>
<path d="" fill="#FFFFFF" transform="translate(0,0)"/>
<path d="" fill="#FFFFFF" transform="translate(0,0)"/>
<path d="" fill="#80FFFF" transform="translate(0,0)"/>
<path d="" fill="#AAAAFF" transform="translate(0,0)"/>
<path d="" fill="#FFFFFF" transform="translate(0,0)"/>
<path d="" fill="#80FFFF" transform="translate(0,0)"/>
<path d="" fill="#FFFFFF" transform="translate(0,0)"/>
<path d="" fill="#FFFFFF" transform="translate(0,0)"/>
<path d="" fill="#80FFFF" transform="translate(0,0)"/>
<path d="" fill="#FFFFFF" transform="translate(0,0)"/>
<path d="" fill="#FFFFFF" transform="translate(0,0)"/>
<path d="" fill="#FFFFFF" transform="translate(0,0)"/>
<path d="" fill="#80FFFF" transform="translate(0,0)"/>
<path d="" fill="#FFFFFF" transform="translate(0,0)"/>
<path d="" fill="#AAAAFF" transform="translate(0,0)"/>
<path d="" fill="#AAAAFF" transform="translate(0,0)"/>
<path d="" fill="#80BFFF" transform="translate(0,0)"/>
<path d="" fill="#FFFFFF" transform="translate(0,0)"/>
<path d="" fill="#80FFFF" transform="translate(0,0)"/>
<path d="" fill="#FFFFFF" transform="translate(0,0)"/>
<path d="" fill="#80BFFF" transform="translate(0,0)"/>
<path d="" fill="#FFFFFF" transform="translate(0,0)"/>
<path d="" fill="#FFFFFF" transform="translate(0,0)"/>
<path d="" fill="#FFFFFF" transform="translate(0,0)"/>
<path d="" fill="#FFFFFF" transform="translate(0,0)"/>
<path d="" fill="#FFFFFF" transform="translate(0,0)"/>
<path d="" fill="#80BFFF" transform="translate(0,0)"/>
<path d="" fill="#FFFFFF" transform="translate(0,0)"/>
<path d="" fill="#80FFFF" transform="translate(0,0)"/>
<path d="" fill="#AAAAFF" transform="translate(0,0)"/>
<path d="" fill="#FFFFFF" transform="translate(0,0)"/>
<path d="" fill="#FFFFFF" transform="translate(0,0)"/>
<path d="" fill="#80FFFF" transform="translate(0,0)"/>
<path d="" fill="#80FFFF" transform="translate(0,0)"/>
<path d="" fill="#80BFFF" transform="translate(0,0)"/>
<path d="" fill="#FFFFFF" transform="translate(0,0)"/>
<path d="" fill="#AAAAFF" transform="translate(0,0)"/>
<path d="" fill="#8080FF" transform="translate(0,0)"/>
<path d="" fill="#80FFFF" transform="translate(0,0)"/>
<path d="" fill="#FFFFFF" transform="translate(0,0)"/>
<path d="" fill="#FFFFFF" transform="translate(0,0)"/>
<path d="" fill="#FFFFFF" transform="translate(0,0)"/>
<path d="" fill="#FFFFFF" transform="translate(0,0)"/>
<path d="" fill="#FFFFFF" transform="translate(0,0)"/>
<path d="" fill="#FFFFFF" transform="translate(0,0)"/>
<path d="" fill="#80BFBF" transform="translate(0,0)"/>
<path d="" fill="#80FFFF" transform="translate(0,0)"/>
<path d="" fill="#FFFFFF" transform="translate(0,0)"/>
<path d="" fill="#FFFFFF" transform="translate(0,0)"/>
<path d="" fill="#FFFFFF" transform="translate(0,0)"/>
<path d="" fill="#FFFFFF" transform="translate(0,0)"/>
</svg>
